<svg xmlns="http://www.w3.org/2000/svg" viewBox="0 0 330.02 406.81"><g id="Layer_2" data-name="Layer 2"><path d="M173.47,282.21a36.32,36.32,0,0,0-12.14.15c-10,1.65-16.65,8.5-16.65,17a15.83,15.83,0,0,0,3,9.63l.63.85c3.83,4.78,10.75,7.72,18.69,7.72,12,0,22-6.67,22-14.89,0-4.62-2.87-8.94-7.5-11.29a32.29,32.29,0,0,0-3.35-1.27,15,15,0,0,0-4.64-.71c-6.42,0-11.73,3.76-12.34,8.74l-.05.46a7,7,0,0,0,13.93.07,1.9,1.9,0,0,1,.15-1.16.64.64,0,0,1,.51-.26,2.47,2.47,0,0,1,1.8.46,4.55,4.55,0,0,1,1.59,3.15c.3,4.12-3.24,6.67-3.28,6.69-2.8,2.46-8.27,1.95-8.33,1.94-7.32-.77-11.69-4.64-11.69-10.36a10.47,10.47,0,0,1,5.16-8.87l1-.6a20.1,20.1,0,0,1,10.62-2.5,37.85,37.85,0,0,1,5.54.61c6.61,2.1,9,.4,9.87-1.4a4.87,4.87,0,0,0-.17-4c-1.35-3.16-5-6-9.69-7.6l-1-.36-2.44-.8-3.49-.71c-3.92-.55-6.92-1-6.92-2,0-.25.58-.81,2.15-1.24l2.36-.53c3.14-.68,4.52-2,4.52-4.21,0-1.74-1.39-3.26-3.55-3.89-2.37-.41-4.53-1.28-4.61-1.82,0-.11.17-.43,1-.86,0,0,3.14-.89,3.61-3,.26-1.19-.39-2.47-1.91-3.77-.08,0-3.93-2.86-2.37-5.33a3.73,3.73,0,0,0,.47-2.78c-.15-.57-.49-1.05-.9-2.35-.11-.36-.19-.66-.24-.86-.13-2-.31-2.38-.46-2.39s-.48.9-.72,1.73a13,13,0,0,0-.32,1.27,5.38,5.38,0,0,0,0,1.43,12.86,12.86,0,0,0,.31,1.34c.07.56-.2,1.39-1.67,2.56a3.62,3.62,0,0,0-1.5,2.41,5.36,5.36,0,0,0,1.76,4.18,1.85,1.85,0,0,1,.68,1.37c-.09.57-.8,1-1.37,1.26l-2.84,1.32-.06,0a3.64,3.64,0,0,0-1.7,2.93c0,1.29.7,3,4,4l2.1.62c1.59.41,1.85.63,1.85,1s-.35.56-1.84,1a34.67,34.67,0,0,0-8.44,3.77c-1.85,1.26-2.81,2.69-2.81,4.24,0,2.87,3.19,5.32,7.59,5.84l8.57,1c1.6.16,4.83.53,5.71.78.4.05.73.2.73.28S174.27,282.43,173.47,282.21Z"/><path d="M159.64,170.2l-1.06,0v13.66a6.16,6.16,0,0,1,.6,1.81c.14-.17.3-.33.46-.51Z"/><path d="M162.63,170.25l-2.06-.05v13.94c.47-.68.93-1.37,1.4-2.08l.66-1Z"/><path d="M155.45,180.65v-10.4h-1.17v9.57a9.48,9.48,0,0,0,1,.7A1.06,1.06,0,0,0,155.45,180.65Z"/><path d="M158.58,170.22l-1.57,0h-.63V181.3a7.23,7.23,0,0,1,.69.59,7.88,7.88,0,0,1,1.93,3Z"/><path d="M154.28,170.26l-1.48,0h-.59V177c.15.32.33.67.55,1a9,9,0,0,0,1.74,2Q154.4,175.14,154.28,170.26Z"/><path d="M161.81,162.07a4.41,4.41,0,0,1-.37-1.72,4.15,4.15,0,0,1,.56-2.11l-.34-.47,0,0a3.41,3.41,0,0,0-2.42-1.22c-1.06,0-2.1.73-3.09,2.1a8.7,8.7,0,0,1-1.33,1.39,6.3,6.3,0,0,1,1.3,1.51c1,1.32,2,2,3.07,2a3.39,3.39,0,0,0,2.42-1.19A2.77,2.77,0,0,1,161.81,162.07Z"/><path d="M164.22,148.29l.44-1.71.44,1.71a4.57,4.57,0,0,0,1.38,2h.19a6.45,6.45,0,0,0,1.1-3.58,7.27,7.27,0,0,0-1.78-4.6,9.38,9.38,0,0,1-1.27-1.93,10.31,10.31,0,0,1-1.24,1.95,7.13,7.13,0,0,0-1.82,4.58,6.44,6.44,0,0,0,1.12,3.59h.1A5.55,5.55,0,0,0,164.22,148.29Z"/><path d="M161.64,154.75a4.4,4.4,0,0,0,1,2.69,3.06,3.06,0,0,1,2.07-.87,3,3,0,0,1,2,.82l.06-.07v0a.83.83,0,0,1,.17-.2,4.34,4.34,0,0,0,.75-2.34v0a5,5,0,0,0-1.76-3.49,8.18,8.18,0,0,1-1.27-1.61,7.36,7.36,0,0,1-1.26,1.58,5.08,5.08,0,0,0-1.75,3.52Z"/><path d="M161.34,167.59a2.33,2.33,0,0,1-.61-1.81c.13-.71.18-1.45.3-1.88l.09-.27a3.72,3.72,0,0,1-1,.39,3.6,3.6,0,0,1-.95.11,4.29,4.29,0,0,1-.62-.07,2.48,2.48,0,0,1-.4,1.08,3,3,0,0,1-1.25,1,3,3,0,0,1-1,.35,5.24,5.24,0,0,1-1.52,0l-.46-.06a3.84,3.84,0,0,0-1.69.24,5.81,5.81,0,0,1,.15-1.36c0-.1.07-.24.12-.47s.13-.58.18-.86a7.43,7.43,0,0,1-3.51-1.2,7.59,7.59,0,0,1-1.75-1.61l-.58-.66.41-.81a7.68,7.68,0,0,1,5.47-3.25,2.85,2.85,0,0,1-.5-.83,2.69,2.69,0,0,1-.15-1.35,5.77,5.77,0,0,1,4.3-.34,6.4,6.4,0,0,1,1.25.88,2.55,2.55,0,0,1,.38.43,2,2,0,0,1,.26.54h0a8.45,8.45,0,0,1,1-.17,7.07,7.07,0,0,1,1.5.33,12.71,12.71,0,0,1-.17-1.47,6.55,6.55,0,0,1,.14-.94,2.55,2.55,0,0,1,.42-.92H158.3c-7.58,0-10.15.16-11.48.24-1.16.08-2.12.16-2.8.22a5.44,5.44,0,0,1-.43,2.48,5.31,5.31,0,0,1-1.08,1.63,5.3,5.3,0,0,1,1.39,1.09c.37.41.49.67.93,1.18a8.24,8.24,0,0,0,1.09,1.08l-.91,1.15c-.52.66-.66.86-.93,1.19a12.22,12.22,0,0,1-1.32,1.34,6.47,6.47,0,0,1,.78,1.32,6.54,6.54,0,0,1,.55,2.34l4.8,0Q155.19,167.76,161.34,167.59Z"/><path d="M169.94,155.65a3.21,3.21,0,0,1,1,.18,3.66,3.66,0,0,1,2.56-2.31c-1.71,0-3.43-.11-5.13-.14a4.69,4.69,0,0,1,.21,1.34,5.12,5.12,0,0,1-.18,1.27A3.45,3.45,0,0,1,169.94,155.65Z"/><path d="M160.63,165.41a4.5,4.5,0,0,1,.16-1.15,3.76,3.76,0,0,1-1.62.39,2.85,2.85,0,0,1-.41,0,3.83,3.83,0,0,1-2.23,2.42c1.46,0,2.93,0,4.39,0A5.86,5.86,0,0,1,160.63,165.41Z"/><path d="M151.28,170.34h-.57l-1.5,0c-.12,1.68-.29,3.46-.54,5.32-.21,1.55-.46,3-.73,4.42a16,16,0,0,1,2.23-1.74c.38-.24.75-.46,1.11-.65Z"/><path d="M176.84,154.93a2.86,2.86,0,0,1-1.24-.23,3.08,3.08,0,0,0-2.61.12,2.9,2.9,0,0,0-1.3,1.56,3.72,3.72,0,0,1,1.85,1.61,7.39,7.39,0,0,0,.93,1.37,7.11,7.11,0,0,0,1,.95,8.19,8.19,0,0,0-1.4,1.06,9.13,9.13,0,0,0-.76.83,5,5,0,0,1-.81,1,5.19,5.19,0,0,1-1,.79,3.35,3.35,0,0,0,2,2.11,3.14,3.14,0,0,0,1.73.07,3.22,3.22,0,0,1,1.34-.09,4.45,4.45,0,0,0-1.14-2.47,7.45,7.45,0,0,0,2.76-.39,7.83,7.83,0,0,0,3.58-2.49,7,7,0,0,0-3.82-3.19,6.55,6.55,0,0,0-2.33-.29A4.1,4.1,0,0,0,176.84,154.93Z"/><path d="M163.07,133.64l.09-.1a10,10,0,0,0,1.34-2.17l.27-.79.31.88a13,13,0,0,0,.77,1.35c.19.3.39.57.58.82l.54.55a6.94,6.94,0,0,0,1.07-3.66,7.77,7.77,0,0,0-1.94-4.94,9.21,9.21,0,0,1-1.41-2.11,9.82,9.82,0,0,1-1.36,2.13,7.57,7.57,0,0,0-2,4.93,6.89,6.89,0,0,0,1.12,3.72C162.67,134.06,162.86,133.84,163.07,133.64Z"/><path d="M159.17,109a10.27,10.27,0,0,1,3.1,4,11,11,0,0,1,.86-1.81,8.89,8.89,0,0,0,1-2.15Z"/><path d="M167.16,113a10.32,10.32,0,0,1,3.16-4h-5a10.63,10.63,0,0,0,1,2.19A12.26,12.26,0,0,1,167.16,113Z"/><path d="M164.72,121.47c.4,0,.84-.34,1.25-1a8.25,8.25,0,0,0,.92-3.86,9,9,0,0,0-1.39-4.76,15.39,15.39,0,0,1-.79-1.69,11.65,11.65,0,0,1-.82,1.65,9.3,9.3,0,0,0-1.36,4.79,8.24,8.24,0,0,0,.9,3.86C163.58,120.7,164.15,121.46,164.72,121.47Z"/><path d="M158.52,126.37a5.18,5.18,0,0,0,1.24,2.67l.69.79a9,9,0,0,1,2-4.74,9.26,9.26,0,0,0-3.38-4.82,7,7,0,0,1,.2,1.73,12.51,12.51,0,0,1-.51,3.35Z"/><path d="M157.68,150.34a6.15,6.15,0,0,1-1.16-2.86A7.42,7.42,0,0,1,158,142.2a4,4,0,0,0,.61-3l-.15-1,.78.36a3.82,3.82,0,0,1,.7.48,2.48,2.48,0,0,0,.09-.62,3.53,3.53,0,0,0,0-.41l-1.13-1.29a5.14,5.14,0,0,1-.7-1.05,5.45,5.45,0,0,1-.69,1.06h0c-.78,1.3-1.44,1.86-1.75,2.6l-.24.7a.89.89,0,0,0-.08.33,2.29,2.29,0,0,0,0,.44,3,3,0,0,0,.08.39c0,.2.08.36.11.47s.07.21.1.36a3.41,3.41,0,0,1,.07.4c-.07-.12-.14-.22-.2-.31s-.24-.31-.28-.36a2.91,2.91,0,0,0-.2-.23,1.63,1.63,0,0,0-.18-.17,5.07,5.07,0,0,0-.38-.34,4,4,0,0,1-.63,1.79l-.38.63a7.5,7.5,0,0,1-.08,6.93Z"/><path d="M160.33,140.86c-.15-.15-.23-.2-.36-.33a3.87,3.87,0,0,1-.38-.4,5.18,5.18,0,0,1-.86,2.76,6.6,6.6,0,0,0-1.34,3.78c0,.21,0,.43,0,.64a5.24,5.24,0,0,0,1.56,3l2.67,0a7.73,7.73,0,0,1,1.16-8.92c.21-.27.42-.56.63-.86.48-.68.9-1.35,1.29-2a12.57,12.57,0,0,0,1.88,2.8l0,0a7.81,7.81,0,0,1,1.11,8.94l2.7.07a5.21,5.21,0,0,0,1.61-3.07,3.49,3.49,0,0,0,0-.65,6.77,6.77,0,0,0-1.3-3.74,5.34,5.34,0,0,1-.91-2.79l-.29.16a2.32,2.32,0,0,0-.28.2,2.84,2.84,0,0,0-.44.43l-.35.41a5.59,5.59,0,0,0,.23-.67,3.65,3.65,0,0,0,.18-1.2,2.94,2.94,0,0,0-.25-.92,24.62,24.62,0,0,0-2.88-4.1,7,7,0,0,1-1.07-1.74,18.63,18.63,0,0,1-1.08,1.75c-1.06,1.51-2.32,2.8-2.85,4.27a3.7,3.7,0,0,0-.19.8,4.65,4.65,0,0,0,.24,1.72c0,.16.08.29.11.38l-.39-.47Z"/><path d="M167,125.16a8.67,8.67,0,0,1,1.92,4.92c.38-.42.77-.85.77-.84a5.35,5.35,0,0,0,1.23-2.68c-.12-.44-.29-1-.29-1a12.92,12.92,0,0,1-.49-3.36,6.43,6.43,0,0,1,.21-1.73A9.17,9.17,0,0,0,167,125.16Z"/><path d="M179.74,187.14a6.83,6.83,0,0,1,.81-2.24,6.7,6.7,0,0,1,1.63-1.88c-.34-.22-.72-.45-1.16-.68a10.74,10.74,0,0,0-1.48-.62,7.42,7.42,0,0,0-3.79,2.46,4.26,4.26,0,0,0-2.33,2.28,4.11,4.11,0,0,0-.19,2.29,9.67,9.67,0,0,1,1.39,2,10.38,10.38,0,0,1,.67,1.78,5.58,5.58,0,0,1,.4-1.32c.23-.5.24-.33.92-1.45a4.19,4.19,0,0,1,.88-1.09h0a5.37,5.37,0,0,0,1.19-1.81l.36-1.29.24.71a1.73,1.73,0,0,0,.17.43A1.53,1.53,0,0,0,179.74,187.14Z"/><path d="M183,182.4l.26-.25,1.17-1.2v-10l-1.5-.08-.59,0c0,3.62,0,7.25,0,10.87.17.17.34.34.51.54Z"/><path d="M184.68,181.21c.12.11.25.24.38.38a5.06,5.06,0,0,1,.46.59V171c-.37,0-.75,0-1.14-.05v10Z"/><path d="M167.38,158.16a4.19,4.19,0,0,1,.62,2.19,4.23,4.23,0,0,1-.48,1.92l.19.32a3.09,3.09,0,0,0,1,.78,2.73,2.73,0,0,0,1.23.31,4.13,4.13,0,0,0,3-2.05,8.74,8.74,0,0,1,1.39-1.44,8,8,0,0,1-1.36-1.47,4.15,4.15,0,0,0-3.06-2,3.33,3.33,0,0,0-2.31,1.08C167.53,158,167.44,158.06,167.38,158.16Z"/><path d="M185.56,169.15c-2.88-.18-5.81-.32-8.8-.44s-6.08-.2-9-.25a6.18,6.18,0,0,1-.76,1.07q4.69.08,9.56.26,4.62.18,9.08.44a2.3,2.3,0,0,1-.1-.5A1.87,1.87,0,0,1,185.56,169.15Z"/><path d="M161,206a8.73,8.73,0,0,1,1.87-3.6l.63-.86c.44-.63.86-1.25,1.27-1.86h0c.39.6.82,1.22,1.28,1.84.21.3.43.58.65.87a8.74,8.74,0,0,1,1.85,3.7c.67,0,1.3,0,2,.06A4.52,4.52,0,0,0,171,204c0-4.17-5.13-8.75-6.31-9.76-5,4.1-6.31,7.22-6.47,9.12a3.39,3.39,0,0,0,0,.44,4,4,0,0,0,.58,2.18Z"/><path d="M166.05,203.08a9.14,9.14,0,0,1-1.29-1.92,10.31,10.31,0,0,1-1.22,1.94,7.1,7.1,0,0,0-1.82,4.59,6.46,6.46,0,0,0,.92,3.28,3.41,3.41,0,0,1,2.18-.81,3.35,3.35,0,0,1,2.07.73l.18-.2a6.56,6.56,0,0,0,.74-3A7.23,7.23,0,0,0,166.05,203.08Z"/><path d="M148.73,179.1l.28-.43.2-8.28c-.42,0-.85,0-1.27,0v9.71l.26-.31c.15-.18.18-.2.27-.32S148.59,179.32,148.73,179.1Z"/><path d="M143.89,152.29c5.79-.24,11.71-.35,17.61-.35.09-.13.17-.28.26-.43s.24-.44.34-.65l-2.95,0c-3.82.06-5.74.06-8.13.09-1.76,0-4.3.07-7.41.17.06.21.13.44.18.68S143.86,152.15,143.89,152.29Z"/><path d="M186,151.44c-3.17-.12-6.34-.23-9.53-.33s-6.24-.2-9.34-.29l.42.71.27.47c6,.1,12,.34,17.94.7,0-.16,0-.32.06-.49A6.75,6.75,0,0,1,186,151.44Z"/><path d="M145.64,180l.22-9.53-1.51,0-.58,0v11.51a6.29,6.29,0,0,0,.58-.49A7.41,7.41,0,0,0,145.64,180Z"/><path d="M165.16,171.5v6.75l.11.33a9.79,9.79,0,0,0,1.35,2.46V170.25H166A5,5,0,0,0,165.16,171.5Z"/><path d="M166.62,170.25V181c.27.39.56.78.86,1.18s.81,1,1.21,1.52V170.29h-.57Z"/><path d="M169.62,170.33v14.51l1.12,1.25V170.36Z"/><path d="M163.33,168.89a9.57,9.57,0,0,1,1.26,1.62,8.32,8.32,0,0,1,1.27-1.58,5.12,5.12,0,0,0,1.75-3.52v0a3.88,3.88,0,0,0-.5-1.9l-.26-.28a3,3,0,0,1-2.14.93,3.06,3.06,0,0,1-2.35-1.15v0h0s0,0-.06.07a4.26,4.26,0,0,0-.73,2.3v0A5,5,0,0,0,163.33,168.89Z"/><path d="M171.79,186.81a1.77,1.77,0,0,0,0,.45c.47.51.79.84.8.85.21.2.41.42.6.64.22-1.35,1.12-3.36,4.2-5.25a3.24,3.24,0,0,1,.71-.47,5.06,5.06,0,0,1,4,0c-.85-.74-1.55-1.28-2.05-1.64-.2-.14-.28-.19-.43-.31a7.63,7.63,0,0,1-1.67-1.72,7.55,7.55,0,0,1-2.79,2.86l-.06,0C172.22,183.8,171.79,185.82,171.79,186.81Z"/><path d="M181.22,180.9c.11,0,.11-.27.12-.6s0-.53,0-.87v-8.66l-1.27-.06q0,4.77,0,9.53l.49.36.25.14C181.16,180.91,181.19,180.91,181.22,180.9Z"/><path d="M173.53,167.2a4.43,4.43,0,0,1-2.86-2.57,3,3,0,0,1-.73.11,3.51,3.51,0,0,1-1.52-.35,4.69,4.69,0,0,1,.11,1,5.07,5.07,0,0,1-.31,1.65C170,167.08,171.76,167.15,173.53,167.2Z"/><path d="M170.74,186.09a7.25,7.25,0,0,1,1.46-2.82,7.37,7.37,0,0,1,.74-.74v-12.1h-.64c-.53,0-1.05,0-1.56-.06Z"/><path d="M180.13,180.24q0-4.76,0-9.53l-1.51-.07-.58,0v7.1l.2.45a10.21,10.21,0,0,0,1.06,1.28A10.09,10.09,0,0,0,180.13,180.24Z"/><path d="M176,170.55l-1.51-.06-.58,0v11.37c.29-.19.58-.37.92-.55l.07,0a13.81,13.81,0,0,0,1.1-.84Z"/><path d="M177.09,170.58q-.57,0-1.14,0v9.85a6.68,6.68,0,0,0,1.14-1.34Z"/><path d="M127.48,236.28v-9.8c-.58.05-1.15.11-1.69.18v9.82Z"/><path d="M199.89,239.55A73.57,73.57,0,0,1,206,248.7a4.62,4.62,0,0,1,1-1.79,3,3,0,0,1,1.67-.81c-.56-.91-1.93-3-4.26-6C202.9,239.92,201.4,239.73,199.89,239.55Z"/><path d="M213.5,226.23c-3.61-.51-7.25-1-10.89-1.36l-.28,0c-2.73-.32-10.37-1-33.93-2.18-.07.2-.15.39-.23.59l-.21.53c7.26.19,14.89.59,22.88,1.26q11.5,1,21.91,2.46A10.76,10.76,0,0,1,213.5,226.23Z"/><path d="M206.85,237.43v-9.84l-1.82-.23-.88-.1v9.84l.88.1Z"/><path d="M223.89,251.93a6.4,6.4,0,0,1-2.31.31,5.79,5.79,0,0,1-4.11-1.93c-.07-.09-.11-.19-.18-.3a10,10,0,0,0,.28,5.37,23.51,23.51,0,0,1,3.48-1.72A6.34,6.34,0,0,0,223.89,251.93Z"/><path d="M203.22,237v-9.83c-.56-.08-1.13-.11-1.7-.17v9.78Z"/><path d="M205.81,240.34c1.24,1.63,2.17,2.94,2.82,3.89,0-.15,0-.31,0-.49a8.82,8.82,0,0,1,.52-2.9C208,240.66,206.91,240.49,205.81,240.34Z"/><path d="M208.79,237.69v-9.86c-.64-.09-1.3-.15-1.94-.24v9.84Z"/><path d="M186.59,235.31v-9.65c-.58,0-1.17-.08-1.76-.12v9.65Z"/><path d="M184.83,235.19v-9.65c-.59,0-1.18-.08-1.78-.12l-.85,0V235l.85.05Z"/><path d="M190.41,235.64V226l-1.92-.15-1-.08v9.67l1,.08Z"/><path d="M201.52,236.76V227l-1.8-.19-.89-.09v9.76l.89.1Z"/><path d="M197.9,236.36v-9.75c-.64-.07-1.29-.12-1.94-.17v9.72Z"/><path d="M192.34,235.8v-9.69c-.65-.06-1.29-.12-1.93-.16v9.69Z"/><path d="M196,236.16v-9.72c-.59-.07-1.2-.13-1.81-.18l-.88-.07v9.7l.88.09Z"/><path d="M212.3,297.08a18.36,18.36,0,0,0,3.55,5h0a4.3,4.3,0,0,1,.92-2.56,9,9,0,0,1-2.56-4.27A4.24,4.24,0,0,1,212.3,297.08Z"/><path d="M218.86,306.79a.58.58,0,0,0,0-1.15.58.58,0,0,0,0,1.15Z"/><path d="M218.86,308.09a1.88,1.88,0,1,0-1.62-1.87A1.76,1.76,0,0,0,218.86,308.09Z"/><path d="M216.62,304.42a2.44,2.44,0,0,0-1.64-.78,3,3,0,0,0-2.17,1.44,6.77,6.77,0,0,1-.92,1,6.28,6.28,0,0,1,.92,1,2.92,2.92,0,0,0,2.17,1.46,2.21,2.21,0,0,0,1.48-.63,2.11,2.11,0,0,1,.18-.27,3.26,3.26,0,0,1-.33-1.42,3.15,3.15,0,0,1,.43-1.63A.66.66,0,0,1,216.62,304.42Z"/><path d="M218.86,309.16a2.23,2.23,0,0,1-1.57-.65.38.38,0,0,0-.11.11,2.9,2.9,0,0,0-.35,1.34v0a3.73,3.73,0,0,0,1.24,2.5,7.25,7.25,0,0,1,.88,1,6.42,6.42,0,0,1,.85-1.06,3.58,3.58,0,0,0,1.29-2.49v0a2.9,2.9,0,0,0-.5-1.58A2.41,2.41,0,0,1,218.86,309.16Z"/><path d="M216,309.48v0h0Z"/><path d="M230.11,304.86a.07.07,0,0,1-.07,0h0a16.32,16.32,0,0,0-1.85,1l-.54.37-.18.14a7.38,7.38,0,0,0-3,4.38c1.07.15,4.37.4,9.15-1.88l.35,1c-4.82,2.29-8.17,2.16-9.48,2a3.26,3.26,0,0,0,0,.33c.69,2.71,5,3.72,9.46,2.23a12.32,12.32,0,0,0,4.3-2.54,26,26,0,0,0,2.83-2.3c2.68-2.48,3.75-5.12,4.92-7.25a11.11,11.11,0,0,1-3.29,1.42,15.21,15.21,0,0,1-6.28.08h-.07a12.43,12.43,0,0,0-5.25.62C230.83,304.56,230.47,304.71,230.11,304.86Z"/><path d="M228.73,288.93a12,12,0,0,1-.56,8.92,17.15,17.15,0,0,1-3.83,5.08,4.21,4.21,0,0,1,.78.59,5.44,5.44,0,0,1,.73.85,9.5,9.5,0,0,1,.79,1.26c.5-.34,1.06-.68,1.66-1s.95-.5,1.4-.71c4.54-3.06,4.79-14.81,4.79-14.95.15-3.41.7-5.39,1.61-6.58C230.6,284.27,229.15,287.83,228.73,288.93Z"/><path d="M216.77,302.06a3.11,3.11,0,0,0,.53,1.64l.1.12a2.29,2.29,0,0,1,1.46-.54,2.34,2.34,0,0,1,1.51.58,2.92,2.92,0,0,0,.64-1.8v0a3.64,3.64,0,0,0-1.22-2.5,6.63,6.63,0,0,1-.89-1.07,6.78,6.78,0,0,1-.84,1.08,3.54,3.54,0,0,0-1.29,2.49Z"/><path d="M181.28,235v-9.65l-1.72-.09v9.64Z"/><path d="M226.91,284.86a15.78,15.78,0,0,1,1.36,2.73,11.88,11.88,0,0,1,3.91-4.34v0c1.47-1.05,2.22-6.85,2.39-9a9,9,0,0,1,1.49-5,15.27,15.27,0,0,0-7.54,5.77,14.82,14.82,0,0,0-2.12,4.57h0c0,.12-.06.24-.09.36A8.06,8.06,0,0,0,226.91,284.86Z"/><path d="M221.42,306.22a3.09,3.09,0,0,1-.27,1.26l.07.08a3.29,3.29,0,0,0,1.71.92H223c.31,0,1,0,2.14-1.4A7.36,7.36,0,0,1,226,306a6.74,6.74,0,0,1-.9-.95c-1.16-1.53-1.87-1.45-2.15-1.47a2.17,2.17,0,0,0-.69.1,2.35,2.35,0,0,0-1.09.73l-.06.07-.14.18A3.2,3.2,0,0,1,221.42,306.22Z"/><path d="M221.88,302.76a2,2,0,0,0,1.32-.21,16.1,16.1,0,0,0,4.15-5.21,9.53,9.53,0,0,0,1-4.41,13,13,0,0,0-.64-3.94h0s0,0,0,0a17.26,17.26,0,0,0-1.59-3.49,8.42,8.42,0,0,1-1.13-3.88,2.89,2.89,0,0,1,.1-.71,15.36,15.36,0,0,0-3.44,3.82,5.58,5.58,0,0,0-1,3.34c0,2.58,1.47,4.68,3.31,4.68a2.27,2.27,0,0,0,1.08-.26l.66-.32V293c0,.05-.08,5-4.37,7A4.06,4.06,0,0,1,222,302,3.35,3.35,0,0,1,221.88,302.76Z"/><path d="M136.06,235.31v-9.72l-.89.07-2,.17v9.76q1-.12,2-.21Z"/><path d="M118.25,237.54l1-.16v-9.92l-2.94.42q0,4,0,7.92Z"/><path d="M122.19,237v-9.87l-2,.25v9.91Z"/><path d="M124.74,236.59v-9.83l-.9.11-1.65.21V237l1.64-.24Z"/><path d="M112,224c2.54,1.74,5-1.68,5.06-1.86a5.92,5.92,0,0,1,1.37-1.22,6.08,6.08,0,0,1-1.44-1.44c-1.1-1.39-2.2-2.11-3.27-2.13a2.67,2.67,0,0,0-1.82.74,9.53,9.53,0,0,1,.5,3.68A10,10,0,0,1,112,224Z"/><path d="M133.19,235.59v-9.76l-2,.17v9.76Z"/><path d="M179.56,234.87v-9.64l-1.88-.1-.94,0v9.64l.94,0Z"/><path d="M162.39,169.44a10.2,10.2,0,0,1-.63-.84c-.07-.11-.14-.22-.2-.33l-8.86.12c-2.93.05-5.84.12-8.72.19,0,.12,0,.23,0,.35,0,.32-.09.63-.14.93,1.94-.08,3.91-.15,5.89-.21Q156.15,169.46,162.39,169.44Z"/><path d="M164.45,193.12l.26-.22.26.22c.39.3,8.95,7.19,6.57,13,1.25,0,2.46.06,3.69.11a6.4,6.4,0,0,0,1.1-3.49,5.41,5.41,0,0,0-1.23-3.41,3.82,3.82,0,0,1-1.18-2.12,6.08,6.08,0,0,0-2.3,2.05,2.26,2.26,0,0,0,.19-1,2.3,2.3,0,0,0-.19-.87,10.8,10.8,0,0,0-.41-1,11.22,11.22,0,0,0-1.77-2.66c-1-1.19-2.58-3.26-4.76-6.31a34.41,34.41,0,0,1-4.59,6,9.82,9.82,0,0,0-2.18,3.32,5.43,5.43,0,0,0-.2.86,5,5,0,0,0,0,.61l0,.64a6.09,6.09,0,0,0-2.09-2A3.93,3.93,0,0,1,154.5,199a5.46,5.46,0,0,0-1.55,3.7,5.54,5.54,0,0,0,1.37,3.34c1.12,0,2.27,0,3.41,0a5.7,5.7,0,0,1-.42-2.67C157.55,200.13,160,196.7,164.45,193.12Z"/><path d="M140.62,163c1.84,1.18,3.57-1.31,3.67-1.45a4.41,4.41,0,0,1,.93-.84,4.74,4.74,0,0,1-1-1,3.43,3.43,0,0,0-2.43-1.58,1.94,1.94,0,0,0-1.27.48,7.85,7.85,0,0,1,.38,2.78A6.65,6.65,0,0,1,140.62,163Z"/><path d="M153.1,206a6.42,6.42,0,0,1-1.08-3.33,6.57,6.57,0,0,1,1.89-4.56,2.6,2.6,0,0,0,.87-1.8,13,13,0,0,0-3.55-3.18A5,5,0,0,1,149.6,196a7.26,7.26,0,0,0-2.35,5v.13a7.65,7.65,0,0,0,2.25,4.89l-.05,0Z"/><path d="M130.21,236v-9.78l-.89.09c-.62,0-1.23.12-1.84.18v9.8l1.83-.2Z"/><path d="M161.29,222.71a275.82,275.82,0,0,0-44.3,2.93l-1.39.21c.1.15.22.32.33.52a4.64,4.64,0,0,1,.28.62,277,277,0,0,1,28.63-2.78c5.87-.27,11.51-.34,16.89-.26a3.91,3.91,0,0,1-.24-.57A6,6,0,0,1,161.29,222.71Z"/><path d="M139,235.08v-9.69l-1.93.12v9.72Z"/><path d="M174,234.6V225l-1.87-.07-1,0v9.66l.94,0C172.75,234.54,173.38,234.56,174,234.6Z"/><path d="M175.81,234.68V225c-.61,0-1.22,0-1.82-.09v9.65C174.59,234.62,175.2,234.64,175.81,234.68Z"/><path d="M167,217.77l-.05-.05a3.45,3.45,0,0,1-2.16.81,3.35,3.35,0,0,1-2.15-.79,6.35,6.35,0,0,0-.88,3.23,7.19,7.19,0,0,0,1.79,4.59,10.12,10.12,0,0,1,1.25,1.93,11,11,0,0,1,1.24-2A7.05,7.05,0,0,0,167.9,221,6.42,6.42,0,0,0,167,217.77Z"/><path d="M161.14,234.33V224.7h-1.82v9.63Z"/><path d="M165.3,234.35l1.1,0,2,0c0-3.22,0-6.44,0-9.66a1.79,1.79,0,0,0-.73.11,2,2,0,0,0-.85.76c-.7,1-1.31,2-1.54,2.43Z"/><path d="M147.38,234.61V225l-2.71.19v9.67c.58-.07,1.2-.13,1.85-.17Z"/><path d="M144.67,234.82v-9.67l-1.76.09v9.68Z"/><path d="M141.89,234.89V225.2l-2.92.19v9.69l1.95-.13Z"/><path d="M155.48,234.38v-9.65l-1.81,0v9.64Z"/><path d="M158.43,234.37v-9.63h-.94c-.69,0-1.36,0-2,0v9.65h3Z"/><path d="M152.88,234.41v-9.64H150v9.65c.61,0,1.26.05,1.93,0Z"/><path d="M150,234.41v-9.65c-.59,0-1.2,0-1.75.07v9.65Z"/><path d="M143.12,167.8a4.73,4.73,0,0,0-.54-2.11,6,6,0,0,0-.92-1.3,2.44,2.44,0,0,0-1-.36,1.72,1.72,0,0,0-.39,0,8.15,8.15,0,0,1-1,1.71c.49.69,1.48,2.07,1.47,2.07a6.26,6.26,0,0,1,1.4,2.94A4.8,4.8,0,0,0,143.12,167.8Z"/><path d="M135,206.93l1.6-.12.67,0c-1-1.57-2.41-5.15.89-9.34a7.48,7.48,0,0,0,1.53-2.88l.37-2,.55,2a7.4,7.4,0,0,0,1.73,2.75,8.06,8.06,0,0,1,2.58,5.32,7.51,7.51,0,0,1-.84,3.8l4.21-.17a8.5,8.5,0,0,1-1.92-4.94,7.51,7.51,0,0,1,1.2-4.14c-.21-.22-.45-.46-.44-.46a5.18,5.18,0,0,1-1.48-2.29,4.93,4.93,0,0,0-.44.46,3,3,0,0,0-.23.3c-.05.09-.1.19-.14.28l-.16.31-.13.19q0-.12,0-.33c0-.39,0-.55,0-.8a2.92,2.92,0,0,0-.17-.66,8.8,8.8,0,0,0-.7-1.48,13.88,13.88,0,0,0-1.42-1.91c-.36-.41-.66-.7-1.08-1.11s-1-.92-1.32-1.2a15,15,0,0,0-1.83,1.79,10.62,10.62,0,0,0-1.67,2.5,6.19,6.19,0,0,0-.59,1.86,5.78,5.78,0,0,0,0,1.53c-.32-.33-.52-.55-.64-.7l-.23-.27c-.5-.57-.58-.72-.84-1a5.26,5.26,0,0,0-.5-.44,6.45,6.45,0,0,0-.56,1,6.9,6.9,0,0,0-.45,1.39,30.4,30.4,0,0,1,1.93,6.16A29.65,29.65,0,0,1,135,206.93Z"/><path d="M142.14,189.33a8.52,8.52,0,0,1,2.88,4.12,4.59,4.59,0,0,1,.55-.76l.83-.88-.05,1.29A5.78,5.78,0,0,0,147,195a5.32,5.32,0,0,0,.43.68l.51.59a7.83,7.83,0,0,0,.66-.57c.18-.18.34-.36.48-.53l.08-.07a3.19,3.19,0,0,0,.93-2.27l.28-1.3,1.26.41c.55.18.78.24,1.13.39a5.42,5.42,0,0,1,.88.48,3.82,3.82,0,0,0,.06-1.11,4,4,0,0,0-.16-.73,3.46,3.46,0,0,0-.47-.89,10.05,10.05,0,0,0-1-1.28,8.69,8.69,0,0,1-1.26-1.9c-.08.14-.16.3-.26.46l-.21.31-.12.15a1.14,1.14,0,0,1-.11.11.8.8,0,0,1-.13.13l-.09.11c0-.12,0-.28,0-.48v-.41a8.05,8.05,0,0,0-.07-.85,4,4,0,0,0-.76-1.53,14.34,14.34,0,0,0-1.17-1.46,11.21,11.21,0,0,0-1-1.06,9.62,9.62,0,0,0-1.14-.89c-.37.26-.75.57-1.15.91s-.81.74-1.15,1.1a18.45,18.45,0,0,0-1.94,1.83,5,5,0,0,0-.91,1.29,4.71,4.71,0,0,0-.29.73q.6.57,1.2,1.2C141.68,188.83,141.92,189.08,142.14,189.33Z"/><path d="M140,161a7.92,7.92,0,0,0-1.67-4.57,8.26,8.26,0,0,0-1.39,4.33v.15a6.67,6.67,0,0,0,1.66,4.08,6.68,6.68,0,0,0,1.39-3.66C140,161.18,140,161.06,140,161Z"/><path d="M148.54,150.49l3.77-.08a6.28,6.28,0,0,0,1.13-3.56,7.07,7.07,0,0,0-1.83-4.56,10.89,10.89,0,0,1-1.21-1.93,9.33,9.33,0,0,1-1.24,1.89,7.16,7.16,0,0,0-1.78,4.6,6.2,6.2,0,0,0,1.16,3.64Z"/><path d="M141.2,157.12a5.46,5.46,0,0,0,1.72-3.45c0-.08,0-.15,0-.22a5.31,5.31,0,0,0-1-2.9,6.44,6.44,0,0,1-1.45,3s-1,1.18-1.57,2a11.58,11.58,0,0,1,1.26,2.12,2.77,2.77,0,0,0,.55-.17A2.37,2.37,0,0,0,141.2,157.12Z"/><path d="M127.42,204.65a8.81,8.81,0,0,0-1.79-5.17,5.73,5.73,0,0,1-2.19,3.48c-1.71,1.45-4.23,4.06-4.72,5.69,1.93-.27,4.68-.64,8.18-1A9.1,9.1,0,0,0,127.42,204.65Z"/><path d="M160.81,207.71a6,6,0,0,1,0-1,306.18,306.18,0,0,0-30.75,1.39q-6.62.63-12.86,1.51a2.05,2.05,0,0,1-.09.63,2.12,2.12,0,0,1-.24.5c4.22-.6,8.58-1.13,13.07-1.56A303.18,303.18,0,0,1,160.81,207.71Z"/><path d="M141.69,198a9.73,9.73,0,0,1-1.52-2,11.43,11.43,0,0,1-1.36,2.18,7.33,7.33,0,0,0-1.82,4.64,6.33,6.33,0,0,0,1.36,3.87c1.46-.1,3-.18,4.54-.27a6.5,6.5,0,0,0,1.07-3.5c0-.11,0-.2,0-.32A7,7,0,0,0,141.69,198Z"/><path d="M113,216.4a7.36,7.36,0,0,0,2.32-4.66,2.74,2.74,0,0,0,0-.29,7.75,7.75,0,0,0-1.46-4.29,17.12,17.12,0,0,1-.53,1.89,6.52,6.52,0,0,1-.5,1.19,5,5,0,0,1-.93,1.16s-1.42,1.66-2.14,2.7a15.16,15.16,0,0,1,1.77,3,3.45,3.45,0,0,0,.67-.22A4.17,4.17,0,0,0,113,216.4Z"/><path d="M132.06,207.17l2.9-.24c0-.17,0-.45.08-.82s.05-1.26.05-1.36c0-.68-.54-5.07-1.6-11.06a12.35,12.35,0,0,1-1.72,2.28,12.18,12.18,0,0,1-1.36,1.23C133,201.08,132.37,205.57,132.06,207.17Z"/><path d="M127.91,207.55l3.17-.3a12.63,12.63,0,0,0,.37-3.17,11,11,0,0,0-2.58-7.16,4.59,4.59,0,0,1-1.05,2.59l-.56.69A10.23,10.23,0,0,1,127.91,207.55Z"/><path d="M153,142.5a1.27,1.27,0,0,0,.26-.26l.16-.25.19-.31a3.06,3.06,0,0,0,.19-.44,6.57,6.57,0,0,0,.22-.67,3.39,3.39,0,0,0,0-1.38l.68.75a6.62,6.62,0,0,1,.29-1.35,6,6,0,0,1,.29-.69,6.68,6.68,0,0,1,1.53-2.06,4.77,4.77,0,0,0,.45-.45,5.4,5.4,0,0,0,.64-.89l.3-.67.56,1.13.69,1,1,1.16a10,10,0,0,1,1.34-2.08,8.52,8.52,0,0,1-1.35-3.69c-.3-.34-1.32-1.48-1.33-1.48A7.05,7.05,0,0,1,158,128a6.45,6.45,0,0,1-1.17,1.9,40.31,40.31,0,0,0-3,5.07,2.73,2.73,0,0,0-.06.3,3.82,3.82,0,0,0-.08.69c0,.07,0,.25,0,.61s0,.29,0,.38,0,.41,0,.7a2.29,2.29,0,0,0-.21-.63,2.06,2.06,0,0,0-.25-.38,4.35,4.35,0,0,0-.72-.74,5.21,5.21,0,0,1-.93,3l-.44.76a9.67,9.67,0,0,0,1.18,2A8.37,8.37,0,0,1,153,142.5Z"/><path d="M167.86,78.27h0a5.12,5.12,0,0,0-2.79,4.37v.52a7.59,7.59,0,0,0,1.57,2.54,9.37,9.37,0,0,1,1.63,2.49,7.2,7.2,0,0,1,1-2.06V86a4.58,4.58,0,0,0-.33-1.62L168.38,83a9,9,0,0,1-.74-3.3A4.52,4.52,0,0,1,167.86,78.27Z"/><path d="M168.83,90a7.56,7.56,0,0,1-.9,4.88h3.91a3.23,3.23,0,0,0,1-2.36,4.41,4.41,0,0,0-.25-1.42l-.48-1.3a9.1,9.1,0,0,1-.58-3,5,5,0,0,1,.22-1.5,5.68,5.68,0,0,0-2.88,4.7Z"/><path d="M172.26,97.72c0-.19.12-.41.19-.66h-4.64a6.44,6.44,0,0,0,1.12,1.67,8.37,8.37,0,0,1,1,1.35A8.25,8.25,0,0,1,172.26,97.72Z"/><path d="M111.44,221.26a10.73,10.73,0,0,0-2.31-6.25,11,11,0,0,0-2,5.94v.2a8.81,8.81,0,0,0,2.31,5.57,8.82,8.82,0,0,0,2-5Z"/><path d="M169.17,41.89v0a8.47,8.47,0,0,0-2.54-5.63,11.54,11.54,0,0,1-1.94-2.72,11.88,11.88,0,0,1-1.89,2.75,8.3,8.3,0,0,0-2.58,5.59v.06a7.56,7.56,0,0,0,1.6,4.49h5.74A7.45,7.45,0,0,0,169.17,41.89Z"/><path d="M166,86.47a10.48,10.48,0,0,1-1.46-2.07,10.19,10.19,0,0,1-1.43,2.09,7,7,0,0,0-2,4.63v.06a6.45,6.45,0,0,0,1.24,3.68h4.46A6.28,6.28,0,0,0,168,91.18,7,7,0,0,0,166,86.47Z"/><path d="M159.7,98.89a6.08,6.08,0,0,0,1.11-1.83h-4.23a3.21,3.21,0,0,0,.16.45,9.28,9.28,0,0,1,2.34,2.16A6.42,6.42,0,0,1,159.7,98.89Z"/><path d="M157.62,94.86h3.54a7.46,7.46,0,0,1-1-3.74,6.51,6.51,0,0,1,.09-1h0a1.14,1.14,0,0,0,0-.26,5.39,5.39,0,0,0-2.51-4.58,4.79,4.79,0,0,1,.2,1.41,9.14,9.14,0,0,1-.58,3L156.83,91a4.15,4.15,0,0,0-.24,1.41A3.32,3.32,0,0,0,157.62,94.86Z"/><path d="M157.92,103a5.32,5.32,0,0,1,.61-2.45,7.83,7.83,0,0,0-2.26-2.17,4.17,4.17,0,0,1,.13.93,7.57,7.57,0,0,1-.45,2.39s-.36,1-.38,1a3.08,3.08,0,0,0-.18,1,2.42,2.42,0,0,0,.87,1.9h2.33A5.5,5.5,0,0,1,157.92,103Z"/><path d="M166.33,48.75a4,4,0,0,1,.32-.88,3.47,3.47,0,0,1,.36-.53h-4.67q.14.24.27.54a5,5,0,0,1,.29.88Z"/><path d="M172.36,106.78H157l.69,1.15h14.08C171.87,107.7,172.07,107.31,172.36,106.78Z"/><path d="M163.18,124.16a8.57,8.57,0,0,0,.92-1.77,3.54,3.54,0,0,1-1.46-1.39,10.28,10.28,0,0,1-.82-6.47h0a8.84,8.84,0,0,0-3.23-4.67,7.51,7.51,0,0,1,.17,1.64,12.73,12.73,0,0,1-.48,3.27s-.43,1.15-.47,1.2a2.83,2.83,0,0,0-.29,1.17,2.07,2.07,0,0,0,0,.35,1.6,1.6,0,0,0,.45.81l.06,0h0A10.66,10.66,0,0,1,163.18,124.16Z"/><path d="M160.87,88.08a9.47,9.47,0,0,1,1.6-2.36,7.73,7.73,0,0,0,1.63-2.81l0-.16s0-.08,0-.11a5.21,5.21,0,0,0-2.81-4.45h0a4.79,4.79,0,0,1,.21,1.45,9.17,9.17,0,0,1-.74,3.32s-.56,1.36-.58,1.39a4.47,4.47,0,0,0-.32,1.61v.11A6.38,6.38,0,0,1,160.87,88.08Z"/><path d="M113.13,309.4l0,0h0A0,0,0,0,1,113.13,309.4Z"/><path d="M123.71,249.73a6.46,6.46,0,0,1,4.05,1.85c1-2,4.66-8.84,9-13.39-2,.16-3.83.34-5.51.51C128,242.12,124.7,247.91,123.71,249.73Z"/><path d="M123.33,250.78c-3.82,0-6.94,4.36-6.94,9.7,0,0,0,1,0,1a64.51,64.51,0,0,0,2.46,13.56c.05.18,5,17.34-4.79,27.47a3.81,3.81,0,0,1,2.89,1.83c0,.06.13.18.25.31a35.39,35.39,0,0,0,4.88-8.39c5-11.6.64-23.87.6-24a20,20,0,0,1-1.37-8.93c.44-2.68,2.16-4.54,4.2-4.54,2.25,0,4,2.37,4.24,5.36a14,14,0,0,0,.51-3.68C130.29,255.14,127.16,250.78,123.33,250.78Z"/><path d="M116.27,305a3,3,0,0,0-2.18-1.45,2.33,2.33,0,0,0-1.64.78l-.13.16a3.15,3.15,0,0,1,.43,1.63,3.36,3.36,0,0,1-.32,1.42,1.37,1.37,0,0,1,.17.28,2.31,2.31,0,0,0,1.49.62,2.92,2.92,0,0,0,2.16-1.45,5.61,5.61,0,0,1,.92-1A5.92,5.92,0,0,1,116.27,305Z"/><path d="M111,299.47a6.23,6.23,0,0,1-.85-1.07,6,6,0,0,1-.87,1.05A3.66,3.66,0,0,0,108,302v0a3.12,3.12,0,0,0,.64,1.82,2.26,2.26,0,0,1,3-.07l.08-.1a3,3,0,0,0,.54-1.64v0A3.63,3.63,0,0,0,111,299.47Z"/><path d="M111.82,306.15A1.64,1.64,0,1,0,110.2,308,1.74,1.74,0,0,0,111.82,306.15Z"/><path d="M111.79,308.44a2.34,2.34,0,0,1-1.59.65,2.42,2.42,0,0,1-1.73-.79,3,3,0,0,0-.5,1.58v0a3.65,3.65,0,0,0,1.29,2.49,6.77,6.77,0,0,1,.85,1.09,5.21,5.21,0,0,1,.87-1.05,3.78,3.78,0,0,0,1.26-2.53v0a3,3,0,0,0-.35-1.34Z"/><path d="M205.49,249.79a73.68,73.68,0,0,0-7-10.41q-3.14-.37-6.18-.69a68.86,68.86,0,0,1,9,13A6.51,6.51,0,0,1,205.49,249.79Z"/><path d="M199.3,264.22c.19-3,2-5.36,4.22-5.36,2,0,3.76,1.88,4.2,4.57a19.88,19.88,0,0,1-1.36,8.92c0,.12-4.37,12.39.62,24a34.15,34.15,0,0,0,4.87,8.34c.09-.13.19-.25.25-.32a3.7,3.7,0,0,1,2.86-1.81c-9.75-10.14-4.82-27.29-4.79-27.46a65.38,65.38,0,0,0,2.48-13.59l0-1c0-5.36-3.13-9.71-7-9.71s-7,4.35-7,9.71A13,13,0,0,0,199.3,264.22Z"/><path d="M209.78,239.29s.16-.26.38-.59c-47.92-7.12-85.83-1.58-91.9-.58a7.74,7.74,0,0,1,.81,1.12,1.24,1.24,0,0,1,.1.2c2.65-.48,41-7.16,90.23.56C209.53,239.77,209.64,239.54,209.78,239.29Z"/><path d="M108,304.59a3,3,0,0,1-.2-.28v0a2.35,2.35,0,0,0-1.71-.86,3,3,0,0,0-2.19,1.5,7.07,7.07,0,0,1-.91.95,5.27,5.27,0,0,1,.88,1,3,3,0,0,0,2.17,1.44,2.47,2.47,0,0,0,1.71-.84,1.26,1.26,0,0,1,.13-.17,3,3,0,0,1-.27-1.25A3.31,3.31,0,0,1,108,304.59Z"/><path d="M112.31,270.11h0a6.15,6.15,0,0,0,.65.26,13.07,13.07,0,0,1,4.48,2.87,64.65,64.65,0,0,1-2-11.69l0-1c-.13-.28-.25-.51-.34-.66s-.09-.15-.2-.31a10.1,10.1,0,0,0-1.41-1.66,8.63,8.63,0,0,0-2-1.37,14.53,14.53,0,0,0-3.39-1.64,8.17,8.17,0,0,1-1.48-.62,7.66,7.66,0,0,1-1.53-1.08c.21.63.54,1.64.94,2.9a26.47,26.47,0,0,0,.85,2.51A13.63,13.63,0,0,0,109,262a12.8,12.8,0,0,0,2.69,2.71,7.14,7.14,0,0,1,1.55,1.31c.33.38.72.93.63,1s-.89-.48-1.21-.72c-.48-.36-.52-.45-1-.76a5.23,5.23,0,0,0-.89-.53c-.4-.2-.54-.21-.84-.39a2.92,2.92,0,0,1-.64-.53q.09.53.24,1.11a17.2,17.2,0,0,0,.53,1.7A4.4,4.4,0,0,0,112.31,270.11Z"/><path d="M113.4,278.86c0,.36.12.74.21,1.15s.15.63.24.92a4.38,4.38,0,0,0,.21.78,4.61,4.61,0,0,0,.23.54l.13.19.15.22s.08.08.1.12a3.05,3.05,0,0,0,.36.36,6.09,6.09,0,0,0,.57.43l.59.48.47.39c.28.23,1,.71,2.57,1.74a33.44,33.44,0,0,0-.34-6.25,30.21,30.21,0,0,0-.69-3.32l-.13-.55c0-.17-.11-.33-.17-.48-1-2.47-3.62-3.65-5.21-4.18a5.67,5.67,0,0,1-2.17-1.31,10.66,10.66,0,0,0,.8,3.45,8.78,8.78,0,0,0,2.15,3.29,11.74,11.74,0,0,1,1.64,1.57,7.16,7.16,0,0,1,1,1.66,6.93,6.93,0,0,1,.34.93,3.11,3.11,0,0,0-2.1-1.59,1.69,1.69,0,0,1-.46-.16A1.84,1.84,0,0,1,113.4,278.86Z"/><path d="M111.59,250.24a5.9,5.9,0,0,1-4.1,1.95,7,7,0,0,1-2.32-.33,6.85,6.85,0,0,0,2.88,1.76,22.08,22.08,0,0,1,3.44,1.69,10,10,0,0,0,.3-5.37C111.71,250.05,111.67,250.15,111.59,250.24Z"/><path d="M122.06,246.84a4.84,4.84,0,0,1,1.08,1.94,60.67,60.67,0,0,1,6.61-9.91c-1.68.19-3.17.38-4.48.55-2.52,3.11-4.2,5.6-4.87,6.62A3,3,0,0,1,122.06,246.84Z"/><path d="M110.92,249.49a5,5,0,0,0,1-3.43c0-.15-.21-3.26-2.93-3.38a2.76,2.76,0,0,0-2.77,1.9l-.88-.35a3.69,3.69,0,0,1,3.7-2.62c2.85.13,3.72,2.92,3.81,4.38a7.18,7.18,0,0,1-.46,2.81c.34.76,1.11,3.26-.06,7a13,13,0,0,1,3.23,3c.52-4.76,3.33-8.5,6.86-9.07a4.11,4.11,0,0,0-1-2.14,2.37,2.37,0,0,0-2.06-.62l-1,.1.58-.95c0-.11,1.54-2.65-.55-6.55,0,0-2.25-3.76-5-2.77l-.9.31.31-1a2.46,2.46,0,0,0,.13-.87,3.85,3.85,0,0,0-2.1-3.36c-.44-.25-10.35-5.71-14.81-13.8a31.12,31.12,0,0,0-.26,3.87c0,3,.67,6.59,2.68,8.83a1.06,1.06,0,0,1,.11.13,13.11,13.11,0,0,0,2.25,1.95c.4.29.45.26.93.62a8,8,0,0,1,.92.81c.45.46.61.72.64,1,0,.09,0,.27-.06.32s-.46-.18-.93-.49a4.31,4.31,0,0,0-1-.53,7.75,7.75,0,0,0-3.34-.24,6.45,6.45,0,0,1,2.06,4.72h0s0,.1,0,.25c0,1.23.16,6.63,2.72,9.63a5.2,5.2,0,0,0,1.22,1.09l.29.2a5.84,5.84,0,0,0,3.2.79A5,5,0,0,0,110.92,249.49Z"/><path d="M120.46,243.67a5.35,5.35,0,0,1,0,.58c.76-1.12,1.92-2.74,3.43-4.64-2,.29-3.44.52-4.12.63A9.2,9.2,0,0,1,120.46,243.67Z"/><path d="M115,292.13c0,.3,0,.6.07.9a3.66,3.66,0,0,0,.56,1.64,3.15,3.15,0,0,0,.75.91,2.88,2.88,0,0,0,.81.46,25.54,25.54,0,0,0,1.93-8.06s-.26-1.67-3.7-3.34a3.6,3.6,0,0,1-.93-.62l-.19-.18h0a4.51,4.51,0,0,1-.61-.74,7.55,7.55,0,0,0-.07,1.12,7.63,7.63,0,0,0,1.73,5,6.19,6.19,0,0,1,.46.68,6.84,6.84,0,0,1,.87,2.51,2.41,2.41,0,0,0-.43-.52,1.38,1.38,0,0,0-.42-.27c-.11,0-.19,0-.39-.13l-.23-.1-.39-.21a1.14,1.14,0,0,1,.09.26A3,3,0,0,1,115,292.13Z"/><path d="M96.43,283.14a3.72,3.72,0,0,0,.57.47,16.63,16.63,0,0,1,3.32,3.14c.17.26.32.52.47.77a15.68,15.68,0,0,1,1.33-2.68,5.82,5.82,0,0,0,1-3.86v0a15.4,15.4,0,0,0-2.53-6.08,16.43,16.43,0,0,0-8.27-5.78,9,9,0,0,1,1.77,5C94.3,278.16,94.23,281.28,96.43,283.14Z"/><path d="M104.57,310.7a7.2,7.2,0,0,0-3-4.34h0l-.75-.53a14.12,14.12,0,0,0-2.11-1h0s0,0-.06,0c-.35-.16-.72-.3-1.09-.43a14.47,14.47,0,0,0-5.67-.64h-.08c-5.22.64-8.56-.34-10.41-1.57a27.38,27.38,0,0,0,8.71,9.68,13.26,13.26,0,0,0,4.46,2.48c4.44,1.49,9.22.48,9.91-2.22a1.8,1.8,0,0,1,.06-.32,18.26,18.26,0,0,1-9.94-2l.36-1A17.36,17.36,0,0,0,104.57,310.7Z"/><path d="M99.37,303.83l2.64,1.56c.08-.13.21-.36.4-.62a7.63,7.63,0,0,1,2.29-1.92h0a16.86,16.86,0,0,1-3.78-5,11.9,11.9,0,0,1-.58-8.95c-.41-1.11-2.61-4.69-8.11-6.58.9,1.2,1.73,3.18,1.89,6.59C94.48,296.29,96.53,302.07,99.37,303.83Z"/><path d="M113.22,302a18.67,18.67,0,0,0,3.55-5,4.09,4.09,0,0,1-1.91-1.85,8.85,8.85,0,0,1-2.59,4.25,4,4,0,0,1,1,2.56Z"/><path d="M114,234.71a7.32,7.32,0,0,0,1.57-4.28v0a7.41,7.41,0,0,0-2.07-4.79,2,2,0,0,0-1.48-.67,1.56,1.56,0,0,0-.46.1,9.75,9.75,0,0,1-1.49,2.49c.72,1.07,2,2.79,2,2.81A7.83,7.83,0,0,1,114,234.71Z"/><path d="M101.34,288.87a.13.13,0,0,1,0,.05h0a13.4,13.4,0,0,0-.64,3.92,9.71,9.71,0,0,0,1,4.43l.05.08a12.39,12.39,0,0,0,5.41,5.26h0a4.62,4.62,0,0,1-.06-.66,4.27,4.27,0,0,1,.61-2.06c-4.29-2.06-4.38-7-4.38-7v-.82l.65.33a2.49,2.49,0,0,0,1.09.26c1.83,0,3.31-2.11,3.31-4.68a5.84,5.84,0,0,0-1-3.4,15.5,15.5,0,0,0-3.42-3.8,4.3,4.3,0,0,1,.1.72,8.74,8.74,0,0,1-1.16,4A15.23,15.23,0,0,0,101.34,288.87Z"/><path d="M176,147a6.52,6.52,0,0,0,1.09,3.55l3.85.14-.06,0a6.31,6.31,0,0,0,1.17-3.66,7.21,7.21,0,0,0-1.77-4.56,9,9,0,0,1-1.26-1.91,8.58,8.58,0,0,1-1.22,1.92A7,7,0,0,0,176,147Z"/><path d="M198.15,221.21h0l0,0S198.15,221.19,198.15,221.21Z"/><path d="M214.81,217.1c-1.06,0-2.16.73-3.24,2.08a6.49,6.49,0,0,1-1.46,1.49,6.52,6.52,0,0,1,1.37,1.24c.12.15,2.52,3.58,5.05,1.84a9.39,9.39,0,0,1-.41-2.24,9.93,9.93,0,0,1,.52-3.67A2.7,2.7,0,0,0,214.81,217.1Z"/><path d="M198.94,208c1.06.11,2.13.19,3.18.31a10.18,10.18,0,0,1,.65-7.35l-.55-.67a4.64,4.64,0,0,1-1.06-2.61,11,11,0,0,0-2.59,7.17A13.41,13.41,0,0,0,198.94,208Z"/><path d="M170.23,234.46v-9.64c-.58,0-1.16,0-1.76-.06l0,9.66Z"/><path d="M189.75,161.25a6.58,6.58,0,0,0,1.38,3.66,6.58,6.58,0,0,0,1.66-4.08v-.15a8.25,8.25,0,0,0-1.4-4.33,7.91,7.91,0,0,0-1.65,4.57C189.74,161,189.75,161.14,189.75,161.25Z"/><path d="M188.53,157.08a2.82,2.82,0,0,0,.46.3,2.58,2.58,0,0,0,.58.19,10.2,10.2,0,0,1,1.26-2.12c-.57-.79-1.57-2-1.59-2a6.27,6.27,0,0,1-1.44-2.93,5.14,5.14,0,0,0-1,2.88,1.48,1.48,0,0,0,0,.22A5.31,5.31,0,0,0,188.53,157.08Z"/><path d="M182,150.78c1.49.05,3,.11,4.44.19l.53.05a26,26,0,0,0-2.86-4.05c-.38-.45-.77-.86-1.15-1.25,0,.24,0,.49,0,.75A11.28,11.28,0,0,1,182,150.78Z"/><path d="M187.92,158.08a3.4,3.4,0,0,0-2.4,1.54,4.85,4.85,0,0,1-1,1.06,4.68,4.68,0,0,1,1,.88c.09.11,1.82,2.58,3.65,1.42a6,6,0,0,1-.28-1.65,7.45,7.45,0,0,1,.36-2.78A2,2,0,0,0,187.92,158.08Z"/><path d="M188.08,164.36a5.18,5.18,0,0,0-1.47,3.42v0a5.16,5.16,0,0,0,1,2.91,6.3,6.3,0,0,1,1.41-2.94l1.47-2.07a8.15,8.15,0,0,1-1-1.71,1.94,1.94,0,0,0-.84.09A1.91,1.91,0,0,0,188.08,164.36Z"/><path d="M186.7,163.5a14.24,14.24,0,0,1-1.85-1.65c-.27-.26-.68-.64-1.18-1.08a13.65,13.65,0,0,0,1.32-1.39,7.93,7.93,0,0,1,1.24-1.48,3.59,3.59,0,0,1,1.63-.69,4.56,4.56,0,0,1-1.42-1.38,4.75,4.75,0,0,1-.75-2.57c-1.59-.09-3.42-.19-5.43-.28-.84,0-2.82-.12-5.39-.2-1.93-.06-4.24-.12-6.87-.15a6.46,6.46,0,0,1,.37,3.52,4.79,4.79,0,0,1,1.26-.17,5.62,5.62,0,0,1,1.51.21,2.9,2.9,0,0,1,.67-1.36,2.78,2.78,0,0,1,1.42-.88l.1,0a3.29,3.29,0,0,1,1.57.09,9.17,9.17,0,0,0,1.25.38,7.91,7.91,0,0,0,1.18,0,6,6,0,0,1,0,1.07,2.46,2.46,0,0,1-.49,1.15,6.76,6.76,0,0,1,2.64.83,6.9,6.9,0,0,1,2.32,2.14l.65,1.14-1,1.24a6.71,6.71,0,0,1-3.22,2,6.58,6.58,0,0,1-1.77.26,1.93,1.93,0,0,1,.28.35,1.64,1.64,0,0,1,.21.56,4.28,4.28,0,0,1,.13,1v.33a7.71,7.71,0,0,0-.82.12c-.32.07-.44.13-.72.18a4.85,4.85,0,0,1-.85.07,6,6,0,0,1-1.37-.07,3.09,3.09,0,0,1-1.87-1,2.78,2.78,0,0,1-.64-1.52,3.66,3.66,0,0,1-1.53.16,4.13,4.13,0,0,1-.9-.21,5.06,5.06,0,0,1,.12,1.46,4.84,4.84,0,0,1-.56,1.95q5.4.18,10.9.44,3.45.16,6.87.36a5.11,5.11,0,0,1,.4-2.33,5.33,5.33,0,0,1,1.55-2.07A7.57,7.57,0,0,1,186.7,163.5Z"/><path d="M166.7,97.06h-4.86A5.87,5.87,0,0,0,163,98.87a7.61,7.61,0,0,1,1.28,2,7.1,7.1,0,0,1,1.35-2.11A5.73,5.73,0,0,0,166.7,97.06Z"/><path d="M168.3,99.51a7.69,7.69,0,0,1-1-1.42,9.52,9.52,0,0,1-1,1.43,5.06,5.06,0,0,0-1.5,3.38v0a4.79,4.79,0,0,0,1,2.77h3.06v0a4.48,4.48,0,0,0,.95-2.74A5.23,5.23,0,0,0,168.3,99.51Z"/><path d="M170.37,101.17a5.6,5.6,0,0,1-.43,4.54H173a2.69,2.69,0,0,0,.62-2.9l-.37-1a7.62,7.62,0,0,1-.46-2.38,3.55,3.55,0,0,1,.15-.93A7.31,7.31,0,0,0,170.37,101.17Z"/><path d="M171.15,114.79a12.07,12.07,0,0,1-.48-3.25,7.25,7.25,0,0,1,.17-1.62,8.81,8.81,0,0,0-3.23,4.66h0a10.21,10.21,0,0,1-.85,6.45h0a3,3,0,0,1-1.44,1.39,7.19,7.19,0,0,0,1,1.82,10.71,10.71,0,0,1,4.87-5.6l0-.06a1.7,1.7,0,0,0,.75-1,2.16,2.16,0,0,0,0-.35,2.72,2.72,0,0,0-.32-1.22Z"/><path d="M168.72,207.66q3.19.08,6.39.21l1.42.06a352.67,352.67,0,0,1,35.8,3.32,1.35,1.35,0,0,1,0-.18,6.65,6.65,0,0,1,0-.89,364.25,364.25,0,0,0-43.61-3.55A8.93,8.93,0,0,1,168.72,207.66Z"/><path d="M217.06,221.44a9,9,0,0,0,1.95,5,8.86,8.86,0,0,0,2.31-5.58c0-.06,0-.14,0-.2a11.12,11.12,0,0,0-2-5.94A10.67,10.67,0,0,0,217,221,3.54,3.54,0,0,0,217.06,221.44Z"/><path d="M193,207.4l1.15.11a18.32,18.32,0,0,1-.13-2.6A7.53,7.53,0,0,1,193,207.4Z"/><path d="M215,225.31a7,7,0,0,0-2,4.63v0a7.17,7.17,0,0,0,1.57,4.25,7.57,7.57,0,0,1,1.84-4.17s1.29-1.74,2-2.82a10.47,10.47,0,0,1-1.49-2.48,2.58,2.58,0,0,0-1,.07A2.63,2.63,0,0,0,215,225.31Z"/><path d="M215.53,216.11a2.9,2.9,0,0,0,.84.52,3.79,3.79,0,0,0,.64.2,14.63,14.63,0,0,1,1.78-3c-.72-1-2.14-2.68-2.17-2.71a13.09,13.09,0,0,1-1.42-2.34,14.31,14.31,0,0,1-.71-1.85,8.6,8.6,0,0,0-1.25,4.26v.29A7.34,7.34,0,0,0,215.53,216.11Z"/><path d="M190.08,196.37a10.64,10.64,0,0,1-1.51,2.07,7.08,7.08,0,0,0-2.28,5,6.54,6.54,0,0,0,1,3.5c1.5.11,3,.23,4.52.36a6.44,6.44,0,0,0,1.42-4,7.51,7.51,0,0,0-1.81-4.71A10.17,10.17,0,0,1,190.08,196.37Z"/><path d="M163,105.71a4.72,4.72,0,0,0,.84-2.62,5.14,5.14,0,0,0-1.45-3.44,7.38,7.38,0,0,1-1-1.42,7.14,7.14,0,0,1-1,1.43,5.16,5.16,0,0,0-1.5,3.37v0a4.53,4.53,0,0,0,.88,2.63Z"/><path d="M212.48,236l-.25-7.48a9.73,9.73,0,0,0-1.17-.33,9.4,9.4,0,0,0-1.34-.21v9.87l.69.1.7.1Z"/><path d="M203.14,208.41c2.75.32,5.47.66,8.18,1-.43-1.62-3-4.27-4.71-5.73a5.69,5.69,0,0,1-2.21-3.49,8.59,8.59,0,0,0-1.26,8.18Z"/><path d="M151.81,210.84Z"/><path d="M167.61,73.41a36.58,36.58,0,0,1-1.41-8.16h0c-.36-7.8.06-15.51.06-15.51h-3.37c.39,9.3.16,15.19.16,15.51h0a40.65,40.65,0,0,1-1.28,8.19,6.78,6.78,0,0,0-.53,2.31,2.51,2.51,0,0,0,.12.81,1.22,1.22,0,0,0,.53.74l0,0a6.32,6.32,0,0,1,2.74,3.09,6.49,6.49,0,0,1,2.85-3.12,2.38,2.38,0,0,0,.61-1.76A5.88,5.88,0,0,0,167.61,73.41Z"/><polygon points="164.79 24.11 167.41 4.5 164.54 0 161.66 4.5 164.79 24.11"/><polygon points="158.34 25.53 152.51 7.47 147.81 5.29 147.25 10.2 158.34 25.53"/><polygon points="171.29 25.52 177.12 7.47 181.27 5.29 182.38 10.21 171.29 25.52"/><polygon points="133.78 15.68 139.13 15.82 152.18 28.98 135.39 20.6 133.78 15.68"/><polygon points="195.85 15.68 190.51 15.82 177.45 28.98 194.24 20.6 195.85 15.68"/><polygon points="182.08 35.21 202.88 27.47 208.48 29.46 204.65 33.96 182.08 35.21"/><polygon points="182.93 42.44 216.42 43.95 220.54 48.14 215.34 50.81 182.93 42.44"/><polygon points="181.17 47.59 232.43 69.16 236.01 75.4 228.93 75.58 181.17 47.59"/><polygon points="178.34 51.57 241.99 107.54 243.91 114.95 236.62 113.26 178.34 51.57"/><polygon points="174.97 54.34 245.61 151.1 245.9 161.11 237.4 157.12 174.97 54.34"/><polygon points="171.18 55.88 236.13 205.01 234.22 214.71 226.05 209.06 171.18 55.88"/><polygon points="94.96 214.69 103.58 209.06 158.45 55.88 92.77 205 94.96 214.69"/><polygon points="82.15 161.11 91.57 157.12 154.66 54.34 82.44 151.1 82.15 161.11"/><polygon points="84.71 114.92 92.35 113.26 151.29 51.57 86.63 107.51 84.71 114.92"/><polygon points="92.89 75.39 100.7 75.58 148.46 47.59 96.75 69.14 92.89 75.39"/><polygon points="109.09 48.14 114.29 50.81 146.7 42.44 113.21 43.95 109.09 48.14"/><polygon points="121.02 29.51 126.75 27.47 147.55 35.21 124.98 33.96 121.02 29.51"/><path d="M164.66,157.61a2.79,2.79,0,0,0,0,5.56,2.79,2.79,0,0,0,0-5.56Z"/><path d="M164.32,234.26l-1.09,0-2.09.05V224.7a2.28,2.28,0,0,1,.58.11,2.6,2.6,0,0,1,1.2,1.05c.41.58.91,1.3,1.43,2.17Z"/><path d="M245.29,303.17l-.11-.15"/><path d="M214.05,292.19c0,.3-.05.6-.07.9a3.59,3.59,0,0,1-.56,1.64,3.19,3.19,0,0,1-.75.91,3.1,3.1,0,0,1-.81.47,25.53,25.53,0,0,1-1.93-8.07s.26-1.66,3.7-3.33a3.83,3.83,0,0,0,.93-.63c.07-.05.12-.12.19-.18h0a5,5,0,0,0,.61-.74,9.2,9.2,0,0,1,.07,1.12,7.63,7.63,0,0,1-1.73,5,6.19,6.19,0,0,0-.46.68,6.78,6.78,0,0,0-.87,2.51,2.41,2.41,0,0,1,.43-.52,1.22,1.22,0,0,1,.42-.27c.11-.05.19-.06.39-.14l.23-.09a2.74,2.74,0,0,0,.38-.22,2.13,2.13,0,0,0-.08.27A2.85,2.85,0,0,0,214.05,292.19Z"/><path d="M215.67,279.11c0,.36-.12.75-.21,1.16s-.15.63-.24.91a4,4,0,0,1-.21.78,3.13,3.13,0,0,1-.24.55l-.12.18-.15.22s-.08.09-.1.13a4,4,0,0,1-.36.35,3.87,3.87,0,0,1-.57.43l-.59.49-.47.38a29.06,29.06,0,0,1-2.57,1.75,32.57,32.57,0,0,1,.34-6.25,30.21,30.21,0,0,1,.69-3.32l.13-.55c.05-.17.11-.33.17-.49,1-2.47,3.62-3.64,5.2-4.18a5.58,5.58,0,0,0,2.18-1.3,10.66,10.66,0,0,1-.8,3.45,9,9,0,0,1-2.15,3.28,11.76,11.76,0,0,0-1.65,1.57,7.63,7.63,0,0,0-1,1.66,7.52,7.52,0,0,0-.34.94,3.11,3.11,0,0,1,2.1-1.59,2.23,2.23,0,0,0,.46-.17A2,2,0,0,0,215.67,279.11Z"/><path d="M216.75,270.19h0a6.15,6.15,0,0,1-.65.26,13.32,13.32,0,0,0-4.48,2.87,66.44,66.44,0,0,0,2-11.69l0-1a5.5,5.5,0,0,1,.34-.66l.19-.31a10.65,10.65,0,0,1,1.41-1.66,8.66,8.66,0,0,1,2-1.37A14.32,14.32,0,0,1,220.9,255a8.18,8.18,0,0,0,1.49-.62,7.85,7.85,0,0,0,1.52-1.08c-.21.63-.53,1.64-.93,2.9-.62,1.92-.68,2.11-.85,2.51A13.61,13.61,0,0,1,220,262.1a12.71,12.71,0,0,1-2.68,2.7,6.91,6.91,0,0,0-1.55,1.31c-.34.38-.73.93-.64,1s.9-.48,1.22-.72.51-.45,1-.76a6.39,6.39,0,0,1,.88-.53,8.89,8.89,0,0,0,.85-.39,2.82,2.82,0,0,0,.63-.53q-.09.53-.24,1.11a14.89,14.89,0,0,1-.53,1.7A4.41,4.41,0,0,1,216.75,270.19Z"/><path d="M218.15,249.68a5,5,0,0,1-1-3.43c0-.15.21-3.26,2.93-3.38a2.76,2.76,0,0,1,2.77,1.9l.88-.36a3.69,3.69,0,0,0-3.7-2.61c-2.85.12-3.72,2.92-3.81,4.38a7.24,7.24,0,0,0,.46,2.81c-.34.76-1.12,3.26.06,7a12.83,12.83,0,0,0-3.23,3c-.52-4.76-3.33-8.5-6.86-9.07a4,4,0,0,1,1-2.14,2.35,2.35,0,0,1,2.06-.62l1,.1-.58-.95c0-.11-1.54-2.65.55-6.55,0,0,2.24-3.77,5-2.77l.9.31-.31-1a2.46,2.46,0,0,1-.13-.87,3.86,3.86,0,0,1,2.1-3.37c.44-.24,9.9-5.68,14.37-13.77a31.26,31.26,0,0,1,.25,3.87c0,3-.5,6.57-2.52,8.81l-.1.12a11.72,11.72,0,0,1-2,2c-.4.29-.45.26-.94.62a10.42,10.42,0,0,0-.92.81c-.44.46-.6.72-.63,1,0,.1,0,.27.06.33s.46-.18.93-.49a4.31,4.31,0,0,1,1-.53,6.42,6.42,0,0,1,3-.24,6.43,6.43,0,0,0-1.77,4.71v0s0,.1,0,.24c0,1.24-.16,6.64-2.72,9.64a5,5,0,0,1-1.23,1.09l-.28.2a5.92,5.92,0,0,1-3.2.79A5,5,0,0,1,218.15,249.68Z"/><path d="M147.42,150.52c-1.49,0-3,.11-4.44.19l-.54,0a26.13,26.13,0,0,1,2.87-4c.38-.45.77-.86,1.15-1.25a6.2,6.2,0,0,0,0,.75A11.28,11.28,0,0,0,147.42,150.52Z"/><path d="M171.76,150.43a6.25,6.25,0,0,0,1.17-2.86,7.48,7.48,0,0,0-1.5-5.28,4,4,0,0,1-.61-3l.15-1-.78.36a3.82,3.82,0,0,0-.7.48,3.4,3.4,0,0,0,0-.56,3.23,3.23,0,0,0-.05-.47l1.13-1.29a5.14,5.14,0,0,0,.7-1.05,5.45,5.45,0,0,0,.69,1.06h0a2.19,2.19,0,0,0,.41.5l.07.06a5.59,5.59,0,0,1,1,1.36,4.62,4.62,0,0,1,.56,1.71,3.73,3.73,0,0,1,0,.44h0a3,3,0,0,1-.08.39,4,4,0,0,1-.1.47c-.05.15-.07.21-.11.36a3.41,3.41,0,0,0-.07.4c.08-.12.15-.22.2-.31s.24-.31.28-.36a2.91,2.91,0,0,1,.2-.23l.18-.17a3.92,3.92,0,0,1,.39-.34,4,4,0,0,0,.62,1.79l.38.63a7.46,7.46,0,0,0,.09,6.93Z"/><path d="M176.46,142.68a1,1,0,0,1-.26-.25,1.51,1.51,0,0,1-.16-.25l-.2-.32a3.08,3.08,0,0,1-.18-.43,6.57,6.57,0,0,1-.22-.67,3.6,3.6,0,0,1,0-1.38l-.68.75a6.12,6.12,0,0,0-.57-2,6.56,6.56,0,0,0-1.54-2.06c-.14-.13-.29-.28-.45-.46a5.24,5.24,0,0,1-.63-.88l-.3-.67-.57,1.13-.68,1-1,1.16a10.08,10.08,0,0,0-1.33-2.09,8.54,8.54,0,0,0,1.35-3.68L170.3,130a7.39,7.39,0,0,0,1.17-1.91,6.92,6.92,0,0,0,1.16,1.91,12.72,12.72,0,0,1,1.34,1.43,8.43,8.43,0,0,1,1.37,2.26l.12.4c.1.37.15.56.16.63s0,.33.09.64h0a5.07,5.07,0,0,1,.08.68c0,.08,0,.26,0,.62s0,.28,0,.38a6.67,6.67,0,0,0,0,.7,2.21,2.21,0,0,1,.2-.63,2.26,2.26,0,0,1,.26-.39A5.13,5.13,0,0,1,177,136a5.13,5.13,0,0,0,.94,3l.44.77a9,9,0,0,1-1.19,2A9.52,9.52,0,0,0,176.46,142.68Z"/><path d="M172.23,95.36H156.85l.69,1.15h14.08C171.73,96.28,171.93,95.89,172.23,95.36Z"/><path d="M159.72,155.8a3.21,3.21,0,0,0-.76,0,3,3,0,0,0-.67.2,3.28,3.28,0,0,0-.77-1.55,3.36,3.36,0,0,0-1.77-1c1.71-.05,3.43-.12,5.13-.15a3.53,3.53,0,0,0-.2,1.34,3.48,3.48,0,0,0,.44,1.57A4,4,0,0,0,159.72,155.8Z"/><path d="M152.64,154.64a2.89,2.89,0,0,0,1.25-.24,3,3,0,0,1,2.61.12,2.87,2.87,0,0,1,1.25,1.65,5.79,5.79,0,0,0-1.1.75c-.77.67-1,1.19-1.77,2a8.09,8.09,0,0,1-1.14,1,7.94,7.94,0,0,1,1.34,1.34c.5.65.6,1,1,1.49a4.61,4.61,0,0,0,1.81,1.22,3.06,3.06,0,0,1-3.57,1.87,3.25,3.25,0,0,0-1.34-.09,4.39,4.39,0,0,1,1.14-2.47,7.68,7.68,0,0,1-2.77-.38,7.94,7.94,0,0,1-3.57-2.49,7.06,7.06,0,0,1,3.82-3.2,6.55,6.55,0,0,1,2.33-.29A4.19,4.19,0,0,1,152.64,154.64Z"/><path d="M164.09,171.5v6.75l-.12.33a10,10,0,0,1-1.34,2.46V170.25h.61A5.36,5.36,0,0,1,164.09,171.5Z"/><path d="M146.35,180.77a1.52,1.52,0,0,0,.66.24V170.44l-.57,0-.57,0-.22,9.53a3.3,3.3,0,0,0,.34.43A2,2,0,0,0,146.35,180.77Z"/><path d="M188.55,189.35l-.7.74a8.52,8.52,0,0,0-2.88,4.12,4.53,4.53,0,0,0-.54-.75l-.83-.89.05,1.3a3.7,3.7,0,0,1-1.29,2.69l-.48.47c-.29-.35-.58-.72-.93-1.07l-.08-.07a5,5,0,0,1-1.49-2.77l0-.94-.62.46c-.39.21-.82.42-1.29.62a13.93,13.93,0,0,1-1.69.6c.11-.63.24-1.15.35-1.55a5.57,5.57,0,0,1,.53-1.27,7.1,7.1,0,0,1,.67-1c.52-.66.72-.81,1-1.16a5.44,5.44,0,0,0,.9-1.76,3.55,3.55,0,0,0,.35,1c.09.15.2.31.2.31l.12.16.11.11.13.13.09.1c0-.11,0-.28,0-.47v-.42a8,8,0,0,1,.07-.84,3.53,3.53,0,0,1,.77-1.53,10,10,0,0,1,1.72-1.84,5.86,5.86,0,0,0,1.59-1.58c.37.27.76.58,1.15.92s.82.74,1.16,1.09a20.46,20.46,0,0,1,1.93,1.83,5.3,5.3,0,0,1,.92,1.3,4.5,4.5,0,0,1,.28.73"/><path d="M198,207.89l-2.9-.24c0-.16-.05-.44-.08-.82s-.05-1.26-.05-1.36c0-.67.55-5.07,1.6-11.06a12.82,12.82,0,0,0,1.72,2.28,13.47,13.47,0,0,0,1.37,1.24C197.08,201.8,197.67,206.3,198,207.89Z"/><path d="M195.1,207.65l-1.6-.12-.67,0c1-1.58,2.41-5.15-.89-9.34a7.64,7.64,0,0,1-1.53-2.89l-.37-2-.55,1.95a7.62,7.62,0,0,1-1.73,2.76,7.91,7.91,0,0,0-2.39,5.33,7.49,7.49,0,0,0,.82,3.58l-2.32-.16-2.15-.14a10.43,10.43,0,0,0,.89-2,10.67,10.67,0,0,0,.53-3.11,10.5,10.5,0,0,0-.61-3.62l.44-.45a5.26,5.26,0,0,0,1.48-2.29,4.93,4.93,0,0,1,.44.46,3,3,0,0,1,.23.3l.14.28c.06.1.11.21.16.31l.12.18a2,2,0,0,0,0-.32c0-.4,0-.56,0-.81a2.51,2.51,0,0,1,.17-.65,8.62,8.62,0,0,1,.7-1.49,15.1,15.1,0,0,1,2.5-3c.54-.51,1-.92,1.32-1.2a15.78,15.78,0,0,1,1.83,1.78,11.06,11.06,0,0,1,1.67,2.5,6.19,6.19,0,0,1,.59,1.86,5.77,5.77,0,0,1,0,1.53c.32-.33.52-.55.63-.69l.24-.27c.5-.58.58-.72.84-1a5.22,5.22,0,0,1,.5-.45,7.52,7.52,0,0,1,.56,1,6.52,6.52,0,0,1,.45,1.39,30.19,30.19,0,0,0-1.93,6.16A29.65,29.65,0,0,0,195.1,207.65Z"/><path d="M150.26,186.43a8.67,8.67,0,0,0-3.06-4.49,8.36,8.36,0,0,1,1.48-.68,8,8,0,0,1,1.65-.36,7.21,7.21,0,0,1,1.7.7,7.4,7.4,0,0,1,2.09,1.76,7.19,7.19,0,0,0,2.33,2.29,7.38,7.38,0,0,0,1.65.72c-.12.14-.3.36-.53.61-.41.45-.73.75-.87.88a10.9,10.9,0,0,0-1.54,1.93,10.68,10.68,0,0,0-.95,2,3.42,3.42,0,0,0-.15-1,6.69,6.69,0,0,0-.8-1.43c-.41-.63-.86-1.27-.86-1.27l-.72-.94a2.82,2.82,0,0,1-.59-.88,3,3,0,0,1-.22-1.16l-.24.48-.18.35Z"/><path d="M158.14,185.93a1.73,1.73,0,0,1,0,.44l-.79.85c-.22.21-.42.42-.61.64-.22-1.35-1.12-3.36-4.2-5.25a4.6,4.6,0,0,0-.71-.47,6,6,0,0,0-4.59-.2,11.33,11.33,0,0,0,1.43-1c.63-.52.86-.81,1.49-1.34a12.67,12.67,0,0,1,1.53-1.13,9.43,9.43,0,0,0,3,2.88l.06,0C157.71,182.91,158.14,184.93,158.14,185.93Z"/><path d="M160.8,208.41l.81,2.31a3.38,3.38,0,0,0-4.22-.19,7.34,7.34,0,0,0-8.31.08l.66.36.26.17-1.16.36a7.23,7.23,0,0,0-8.28-.57l.53.72a5.11,5.11,0,0,0-.53.26,4.73,4.73,0,0,0-.44.3,7.37,7.37,0,0,0-4.42-1.7,7.25,7.25,0,0,0-4.26,1.23,2.08,2.08,0,0,1,.75.27,2.21,2.21,0,0,1,.49.43c-.31.06-.64.14-1,.23s-.69.21-1,.32a7.38,7.38,0,0,0-8.69-.57,2.27,2.27,0,0,1,.59.38,2.12,2.12,0,0,1,.47.61,6.35,6.35,0,0,0-3.19,1.86,6.21,6.21,0,0,0-1.35,2.34,6.23,6.23,0,0,0,5,3.89,2.82,2.82,0,0,1-.35.47,2.21,2.21,0,0,1-.77.5,7.61,7.61,0,0,0,9.14-2.08,3,3,0,0,0,.4.19,3.23,3.23,0,0,0,1.15.21l-.8.79a6.85,6.85,0,0,0,4.24.55,6.92,6.92,0,0,0,3.93-2.3,5,5,0,0,0,1.07.34,4.35,4.35,0,0,0,.75.09,2.47,2.47,0,0,1-.46.45,2.85,2.85,0,0,1-.88.49,7.72,7.72,0,0,0,8.74-1.84l.94.23a1.79,1.79,0,0,1-.4.51,1.85,1.85,0,0,1-.74.42,7.71,7.71,0,0,0,8.6-1.89,3.73,3.73,0,0,0,1.41.33,3.67,3.67,0,0,0,2-.57,6.45,6.45,0,0,0-.41,2.33,6.79,6.79,0,0,0,.16,1.31c-8.12-.09-16.93.16-26.3.92-6.91.56-13.44,1.34-19.58,2.27l-.55-.41a4.08,4.08,0,0,0,1.77-.86,9.12,9.12,0,0,0,1.06-1.28,10.75,10.75,0,0,1,1.67-1.67c-.28-.27-.71-.69-1.2-1.23-1.24-1.37-1.49-2-2.29-2.47a4.34,4.34,0,0,0-2.19-.67,7.36,7.36,0,0,0,2.49-3.86,6.88,6.88,0,0,0,.19-1.14c6.11-.89,12.58-1.65,19.4-2.2C144.59,208.7,153,208.41,160.8,208.41Z"/><path d="M156.72,211q-.36.22-.75.51a9.75,9.75,0,0,0-1.84,1.88l-1,1,1.49,1.66a13.47,13.47,0,0,0,1.62,1.48,14,14,0,0,0,1.19.81,7.52,7.52,0,0,1-2.86,1.65,7.42,7.42,0,0,1-3.76.15,3.24,3.24,0,0,0,.57-.73,2.76,2.76,0,0,0,.26-.62,5.53,5.53,0,0,1-5.33-3.38,6.06,6.06,0,0,1,4.71-3.82,2,2,0,0,0-.23-.46,2.07,2.07,0,0,0-.64-.59,6.23,6.23,0,0,1,6.53.45Z"/><path d="M148.36,211.9a5.54,5.54,0,0,0-1.53,1.2,8.24,8.24,0,0,0-1,1.42c-.26.43-.45.8-.58,1.07a10,10,0,0,0,1.33,1.74,5.32,5.32,0,0,0,1.4,1.15,5.07,5.07,0,0,0,1.05.44,6.86,6.86,0,0,1-2.88,1.88,6.77,6.77,0,0,1-3.76.15,2.6,2.6,0,0,0,.57-.73,2.76,2.76,0,0,0,.26-.62,6.77,6.77,0,0,1-2.73-.59,7.06,7.06,0,0,1-3.16-2.88,6.4,6.4,0,0,1,5.1-3.83l-.24-.35-.46-.6a6.25,6.25,0,0,1,3.19-.7A6.16,6.16,0,0,1,148.36,211.9Z"/><path d="M139.8,212.5a5.66,5.66,0,0,0-1.19.74,8.9,8.9,0,0,0-1.55,1.76c-.31.41-.55.75-.71,1,.35.51.67.93.92,1.25a7.55,7.55,0,0,0,1.36,1.48,5,5,0,0,0,1.3.71,6.9,6.9,0,0,1-2.88,1.82,6.79,6.79,0,0,1-3.77.11,2.7,2.7,0,0,0,.59-.72,2.76,2.76,0,0,0,.26-.62,5.5,5.5,0,0,1-2.72-.62,5.71,5.71,0,0,1-2.57-2.81,6,6,0,0,1,4.75-3.77,1.55,1.55,0,0,0-.23-.47,2,2,0,0,0-.63-.59,6.68,6.68,0,0,1,7.07.74Z"/><path d="M130.25,213.47a6.3,6.3,0,0,0-1,.86,6.45,6.45,0,0,0-.72,1,6.6,6.6,0,0,0-.66,1.4,10.51,10.51,0,0,0,.82,1.32,6.56,6.56,0,0,0,1.27,1.43,5.58,5.58,0,0,0,1,.68,7.43,7.43,0,0,1-3.33,2.13,7.57,7.57,0,0,1-3.82.16,3.06,3.06,0,0,0,.59-.74,3,3,0,0,0,.26-.63,5.59,5.59,0,0,1-5.4-3.43,6.06,6.06,0,0,1,1.8-2.52,6.24,6.24,0,0,1,3-1.35,2,2,0,0,0-.24-.46,2,2,0,0,0-.64-.6,6.33,6.33,0,0,1,3.22-.72A6.52,6.52,0,0,1,130.25,213.47Z"/><path d="M161.79,211.71a3.84,3.84,0,0,0-1,2.74A3.9,3.9,0,0,0,162,217a3.42,3.42,0,0,1-1.66,1.07,3.67,3.67,0,0,1-2.93-.51,6.83,6.83,0,0,1-1.1-.89c-.38-.38-.54-.63-1-1.21-.36-.43-.68-.78-.93-1,.21-.31.51-.72.89-1.2a10,10,0,0,1,1.21-1.34,7.18,7.18,0,0,1,1.61-1.06,3.69,3.69,0,0,1,2.35,0A3.57,3.57,0,0,1,161.79,211.71Z"/><path d="M167.6,211.54a3.94,3.94,0,0,1,1,2.74,3.85,3.85,0,0,1-1.22,2.59A3.4,3.4,0,0,0,169,218a3.64,3.64,0,0,0,2.93-.52,6.33,6.33,0,0,0,1.1-.89c.38-.37.54-.62,1-1.21.36-.43.69-.78.93-1-.21-.3-.5-.72-.88-1.19a10.1,10.1,0,0,0-1.22-1.34,6.55,6.55,0,0,0-1.61-1.06,3.62,3.62,0,0,0-2.35,0A3.4,3.4,0,0,0,167.6,211.54Z"/><path d="M164.77,211.11a3.19,3.19,0,0,0,0,6.36,3.19,3.19,0,0,0,0-6.36Z"/><path d="M168.64,208.44a4.12,4.12,0,0,1-.1.65,4.33,4.33,0,0,1-.64,1.41,3.35,3.35,0,0,1,4.23-.12,7.33,7.33,0,0,1,8.3.22c-.21.11-.44.22-.66.35l-.27.16,1.16.39a7.23,7.23,0,0,1,8.28-.43l-.74.53a3.53,3.53,0,0,1,.87.46,4.89,4.89,0,0,1,.46.4,6.8,6.8,0,0,1,8.52-.43,2,2,0,0,0-.75.27,2.06,2.06,0,0,0-.5.41c.31.07.64.15,1,.26s.69.22,1,.33a7.37,7.37,0,0,1,8.7-.41,1.82,1.82,0,0,0-.6.36,2.17,2.17,0,0,0-.48.6,5.28,5.28,0,0,1,3.06,2,5.11,5.11,0,0,1,.9,2.57,6,6,0,0,1-4.95,3.68,1,1,0,0,0,.16.44,1.11,1.11,0,0,0,.65.41,7.15,7.15,0,0,1-4,.45,7.27,7.27,0,0,1-4.38-2.74,3,3,0,0,1-.4.19,3.43,3.43,0,0,1-1.16.19l.79.8a6.82,6.82,0,0,1-4.25.48,6.91,6.91,0,0,1-3.89-2.37,5.09,5.09,0,0,1-1.07.32,5.66,5.66,0,0,1-.75.08,3.06,3.06,0,0,0,.44.46,3.15,3.15,0,0,0,.88.5,7.73,7.73,0,0,1-8.71-2l-.95.21a2.18,2.18,0,0,0,.39.52,2.1,2.1,0,0,0,.74.44,7.74,7.74,0,0,1-8.57-2,4,4,0,0,1-3.11,0,6.08,6.08,0,0,1,.46,2,5.93,5.93,0,0,1-.12,1.62l28,1.63,17.2,2.06,1.08-1.07a3.72,3.72,0,0,1-1.74-.33,5.68,5.68,0,0,1-1.79-1.67c-.39-.46-1-1.18-1.82-2.09a12.71,12.71,0,0,0,1.31-1.23,22.76,22.76,0,0,1,1.94-2.21,5.33,5.33,0,0,1,2-1,6.91,6.91,0,0,1-1.23-1.28,7.12,7.12,0,0,1-1.24-2.9c-9.38-1.41-19.47-2.51-30.19-3.1Q175.15,208.52,168.64,208.44Z"/><path d="M172.79,210.83a6,6,0,0,1,.73.53,6.41,6.41,0,0,1,1.1,1.15l.75.87.73.86a12.5,12.5,0,0,0-1.11,1.09c-.33.36-.62.72-.87,1a4.67,4.67,0,0,1-1.32,1.35,5.19,5.19,0,0,1-.89.44,7.44,7.44,0,0,0,2.83,1.69,7.54,7.54,0,0,0,3.76.22,3.07,3.07,0,0,1-.56-.74,2.86,2.86,0,0,1-.25-.62,5.55,5.55,0,0,0,2.74-.55,5.78,5.78,0,0,0,2.65-2.74,6.19,6.19,0,0,0-1.73-2.53,6.1,6.1,0,0,0-2.92-1.37,2.07,2.07,0,0,1,.89-1,6.24,6.24,0,0,0-6.53.34Z"/><path d="M181.21,211.81a4.13,4.13,0,0,1,.73.53,4.66,4.66,0,0,1,.87,1,7.82,7.82,0,0,0,.77,1.18,8.71,8.71,0,0,0,.72.81l-.72.81a6.61,6.61,0,0,1-1.29,1.51c-.25.22-.53.43-1,.76s-.75.54-1,.7a7.4,7.4,0,0,0,6.6,1.92,2.83,2.83,0,0,1-.57-.74,3.27,3.27,0,0,1-.25-.63,5.51,5.51,0,0,0,2.74-.54,5.72,5.72,0,0,0,2.65-2.74,5.85,5.85,0,0,0-2.1-3.14,5.67,5.67,0,0,0-2.23-1,1.53,1.53,0,0,1,.14-.54,1.49,1.49,0,0,1,.53-.62,7.68,7.68,0,0,0-3.26-.41A7.78,7.78,0,0,0,181.21,211.81Z"/><path d="M189.93,212.78a7.5,7.5,0,0,1,.66.62,8.81,8.81,0,0,1,1.13,1.51l.73,1.62a7.55,7.55,0,0,1-1,1.44c-.2.21-.57.59-.83.84l-.36.36-.84.61a7.36,7.36,0,0,0,2.85,1.67,7.52,7.52,0,0,0,3.76.18,2.83,2.83,0,0,1-.57-.74,2.76,2.76,0,0,1-.26-.62,5.62,5.62,0,0,0,2.74-.57,5.78,5.78,0,0,0,2.62-2.77,6.14,6.14,0,0,0-1.76-2.51,6,6,0,0,0-2.93-1.34,1.7,1.7,0,0,1,.24-.46,2,2,0,0,1,.64-.59,6,6,0,0,0-6.83.75Z"/><path d="M199.06,213.61a7.28,7.28,0,0,1,.63.62,7.9,7.9,0,0,1,1.17,1.64l.63,1.13-1,1.37a7.3,7.3,0,0,1-1.47,1.5,7.73,7.73,0,0,1-.87.58,7.17,7.17,0,0,0,3.15,2.17,7.07,7.07,0,0,0,3.81.22,3,3,0,0,1-.82-1.38,5.68,5.68,0,0,0,2.77-.55,5.8,5.8,0,0,0,2.69-2.78,6.18,6.18,0,0,0-1.76-2.56,6.1,6.1,0,0,0-3-1.39,1.93,1.93,0,0,1,.25-.46,2.08,2.08,0,0,1,.65-.59,6.4,6.4,0,0,0-3.21-.77A6.51,6.51,0,0,0,199.06,213.61Z"/><path d="M164.63,179.83c-.7,1-1.79,2.46-3.26,4.17-2,2.31-2.89,3-4.23,4.8a26.46,26.46,0,0,0-3.13,5.29,9.79,9.79,0,0,0-1.91-1.15,9.28,9.28,0,0,0-1.38-.49,5,5,0,0,1-.41,2.1,5.22,5.22,0,0,1-2,2.32,8.3,8.3,0,0,0,.89,9.31l4.48,0a5.81,5.81,0,0,1-1.43-4.34,4.83,4.83,0,0,1,1.13-2.72,9.37,9.37,0,0,0,1.1-1.09,4.34,4.34,0,0,0,.77-1.91,3.62,3.62,0,0,1,1.27.68,3.17,3.17,0,0,1,.81,1,4.52,4.52,0,0,1,.11-2.36,5.55,5.55,0,0,1,1.66-2.19s1.27-1.28,3.49-4a33.42,33.42,0,0,0,2.12-2.93l1.38,1.8c2.15,2.81,2.29,3,2.64,3.39.62.68,1,1,1.63,1.83a12.09,12.09,0,0,1,1,1.45,7.47,7.47,0,0,1,.92,3,3.38,3.38,0,0,1,1-.9,3.58,3.58,0,0,1,1.1-.43,4.87,4.87,0,0,0,.5,1.51,15.32,15.32,0,0,0,1.15,1.55,6.45,6.45,0,0,1,1,2.14,6,6,0,0,1,.17,2,7,7,0,0,1-.73,2.38l-.15.29,4.32.24a8.4,8.4,0,0,0,1.59-4.64,6.88,6.88,0,0,0-.95-4c-.42-.66-.73-.81-1.35-1.73a11.19,11.19,0,0,1-1.29-2.6,18.48,18.48,0,0,0-2.21.74c-.48.19-.92.4-1.34.6a6.74,6.74,0,0,0-.28-1.73,8.19,8.19,0,0,0-1.43-2.6c-.17-.22-.52-.66-2.07-2.34l-2.54-2.73-1.34-1.7Q165.9,181.74,164.63,179.83Z"/><path d="M98.41,352a12.85,12.85,0,0,1-3.16-1.83A13.4,13.4,0,0,1,91,344c9.21,1.79,13.38,14.26,13.42,14.38l.14.44,6.6-3.24,7.2-11.86-8.75,0c-.23.56-.48,1.14-.76,1.74-.45.95-.92,1.82-1.39,2.62l-.42-.59c-3.3-5.58-10.33-8.2-10.64-8.31l-.12,0h-.11A59.29,59.29,0,0,0,88,340.32c-1.94.43-3.73.93-5.37,1.45l-.06.09A11.22,11.22,0,0,0,85,348.5C87.89,352.1,93.18,353.48,98.41,352Z"/><path d="M308.48,301.51a3.54,3.54,0,0,0-4.53-.27l-8.49,8.95,2.06,10.4.71-.8c.07-.07,6-6.61,7-7.64.74-.72,1.7-.61,2.85.34l19.79,18.66Q329,325.9,330,320.66L328.24,319C328.07,318.89,310.25,303.18,308.48,301.51Z"/><path d="M186.54,366.44,168,368.13l-6.65,8.7L179.66,375c.15.91,3.25,19.34,3.31,19.67-.1.18-.63,1.14-.82,1.54-4.47-.19-7.15-4.6-7.45-5.13v-1.85a39.57,39.57,0,0,1,3.07-4.53,4.44,4.44,0,0,0,.93-2.88,5.67,5.67,0,0,0-6.08-5.89h-.24l-6.88,9.21,1.34-.27c3.88-.8,4.62,1.16,4.69,1.39s-.1,3.1-.11,3.44L168,393.43a3.69,3.69,0,0,0-1.13,2.69,3.23,3.23,0,0,0,.46,1.74,17.27,17.27,0,0,0,13,8l.3,0L191.5,390.5,187,366.39Z"/><path d="M289.53,317.41a1.69,1.69,0,0,0-1.28.59c-.8.88-9.15,8-13.47,11.71l-.17.14-.46,9.76,14.51,17.53,10.69,1,.07-.48c0-.13,1.93-13.19-6.58-24.34l-.08-.09-.12-.06c-2.27-1-4.63-1.95-6.54-1.2l-.32.14v.36c0,2.59-.28,7.69-.27,7.75l0,.18-3.71-4.63.38-2.18c.25-.22,5.66-5.3,5.85-5.47a1.64,1.64,0,0,1,1.58.27q9.86,10.69,19.72,21.38,1-5.36,2.05-10.71-9.94-10.29-19.88-20.6A3.08,3.08,0,0,0,289.53,317.41Zm-3.6,23.32,4.22.73a6.3,6.3,0,0,1,3.82,6.12l-3.15-.55c-.13-.16-2.57-3.2-5.07-6.34Z"/><path d="M267.62,337.87c-1.32-2-3.29-1-4.11-.57l-15.13,9.07-1.82,10L261.32,348c2.24-1.26,3.25.14,3.36.31,0,0,.41.72,3.11,4.44a26.89,26.89,0,0,0-11.23-1.65l-.34,0-.09.34a129.31,129.31,0,0,0-3,13.76l0,.13.06.13c4.15,12.1,12.5,13.9,12.85,14l.53.1,1.32-10.2-.38-.14c-7.52-2.66-9-6.35-9.13-6.75l.29-2.46c10.75,2,19.82,10.06,19.91,10.14l1.48,1.36,3.27-11.64-.45-.65C282.69,359,268.6,339.37,267.62,337.87Z"/><path d="M236.71,359.9l5.68-3,.76-8.36-.81.37-15.76,7.22-4.88,10.54.9-.06c8.66-.61,13.5,2.26,16,4.77a12.06,12.06,0,0,1,3.74,7.53c-3.81.06-7.8-2.34-7.84-2.36l-.84-.53.05,1a46,46,0,0,1-.73,8l0,.24.18.19c3.58,3.75,12,3.85,12.38,3.84h.37L246,389a105.11,105.11,0,0,0,3.5-15.08l0-.1v-.1A19,19,0,0,0,236.71,359.9Z"/><path d="M217.05,359.58l-.32-1-.63.86c-7.06,9.51-17.28,5-17.7,4.78L198,364l-6.08,8.92,0,.22C192.12,374,196.1,393,197,396l0,.08.07.08c1.44,2,5.09,5.31,9.48,5.34h.16l.15-.1c3.17-2.15,6.77-9.6,7.25-15-.11-9-5.93-11.7-6.92-12.08a11.51,11.51,0,0,0,4.6-2.09q1.85,6.26,3.62,12.72c1.25,4.52,2.43,9,3.57,13.38l7.33-9.53-.58-1.77,0-.1C225.68,386.77,221.65,374.55,217.05,359.58Zm-16.35,14a11.4,11.4,0,0,0,5.7.83c0,.07-3.47,4.61-4.44,5.91C201.36,377.4,200.87,374.86,200.7,373.59ZM207.61,391A4.4,4.4,0,0,1,204,389.8c-.52-2.28-1.13-5-1.69-7.58C206.67,383.26,207.77,388.26,207.61,391Z"/><path d="M157.27,390.21c-.17,0-.23-.11-.23-.14l.11-.31,2.13-1.63V367.54l-.06,0-8.78,5.73v16.9c-.68.48-3.1,2.16-7,4.57-5.9-.37-6.24-7.51-6.24-9.08v-.15a94,94,0,0,1,6.83-8.65l.1-.1,0-.11a11.44,11.44,0,0,0,.47-3.09,7.08,7.08,0,0,0-.93-3.63,7.72,7.72,0,0,0-4.54-3.4l-.27-.08-.22.21s-.81.82-6.1,5.07l-.86.69,1.1.22a5.05,5.05,0,0,1,3.12,2.25,7.45,7.45,0,0,1,.23,5.83,39.81,39.81,0,0,1-6.77,7.31l-.17.14,0,.18A16.31,16.31,0,0,0,138,405.33a40.78,40.78,0,0,1,11.54-9.76c3.18,1.61,3.88,4,3.88,5.73a7.12,7.12,0,0,1-.29,1.95,9.38,9.38,0,0,1-1.15,2.62l1.48.94c1.3-1.09,2.6-2.21,3.92-3.36q2.25-2,4.37-3.92l.21-.2c0-.41,0-1-.09-1.73,0-.46-.06-.78-.09-1.08a7.06,7.06,0,0,0-.56-2.3A8.9,8.9,0,0,0,157.27,390.21Z"/><path d="M119.57,371.2s-4.5,18.85-4.69,19.7a10.11,10.11,0,0,1-6-3.12,8.88,8.88,0,0,1-2-5.93c0-.29,0-.59,0-.91,3.75-3,5.69-4.35,5.71-4.36l.53-.39-.5-.41s-3.13-2.69-3.13-5.74c0-.16,0-.32,0-.48a2.85,2.85,0,0,1,4.59,2.31l.16.67,6-3.52v-.29c0-.21-.16-5-4.25-6.73l-.2-.09-.23.1c-5.83,2.76-13.86,7.16-13.93,7.21l-.2.11,0,.21a9.83,9.83,0,0,0-.25,2.24,10.2,10.2,0,0,0,2,6A65.58,65.58,0,0,0,98,381.82l-.13.12,0,.17a12.6,12.6,0,0,0-.16,2,15.71,15.71,0,0,0,12.72,15.3l.18,0,12.8-6.46.05-.22,6.54-28Z"/><path d="M65.28,370.85c4.68-6.92,14.49-20.7,14.49-20.7l1.15-1.62H79q-3.9,0-7.55.24l-15.8,21.55,0,.08c-.08.27-1.76,6.38,2.42,8.83l.19.12.24-.09c3.78-1.24,6.31-1.79,6.33-1.8l.61-.14-.25-.57C64.09,374.26,64.12,372.56,65.28,370.85Z"/><path d="M67.64,348.25c1.6-6.18-2-8.41-2.18-8.51l-.15-.09-.19,0c-.05,0-1.19.13-8.7,0l-2,0,1.67,1.06a4.6,4.6,0,0,1,2.27,2.78,3.46,3.46,0,0,1,.07.62,3.29,3.29,0,0,1-.47,1.66s-3.64,4-5,5.51c0-.72,0-1.59,0-2.57s0-2.16.06-3.17v-.22c0-3.29-3.13-4.76-3.26-4.82l-.11-.06H42.05l-.23,1.07c.92.42,1.37,2.26,1.46,2.88,0,0,.1,12.81.12,13l-1.95,4.91-1.88,4.77h11.9Z"/><path d="M29.08,308a4.89,4.89,0,0,0,.12-1.71c1.81-.65,4.23,2.07,4.27,2.1l11.11,11.69,9.23-1.59L25.58,288.55l-10.52-.95-.29,1c3.5,1.83,5,6.56,5.66,10.34a32.35,32.35,0,0,1,.5,5.15C20.68,304.39.2,329.17.2,329.17l0,.11a5.54,5.54,0,0,0-.09,2.31,4,4,0,0,0,2.16,3l.1.06h7.85L10.1,334l-.74-4.26c.36-.38,19.69-21.66,19.69-21.66Z"/><path d="M38.7,329.82l5.16,3.73,7.76-3-.68-.55L37.65,319.17l-11.5.26.45.77c4.32,7.43,3.89,13,2.76,16.33a11.92,11.92,0,0,1-5.06,6.6c-1.72-3.36-1.33-7.95-1.32-8l.1-1-.87.48a43.15,43.15,0,0,1-7.44,2.85l-.23.07-.09.24c-1.77,4.82,1.83,12.36,2,12.68l.15.33.37,0a104.42,104.42,0,0,0,14.92-3.48l.1,0,.08-.06A18.78,18.78,0,0,0,38.7,329.82Z"/><path d="M177.11,361.37A13.1,13.1,0,0,1,167.2,359c8.67-3.58,19,4.53,19.12,4.61l.36.28,3.72-6.33-7.24-4.26-.67-.25c-5.83-2.85-13.14-1.16-13.46-1.08l-.12,0-.09.07a60.27,60.27,0,0,0-6.11,5.48c-1.38,1.43-2.6,2.83-3.68,4.17v0a11.73,11.73,0,0,0,6.31,3.86C171.91,367,176.89,361.62,177.11,361.37Z"/><path d="M93.42,364.06l5.91,2.54,7-4.65-.79-.39L90,353.79l-11.28,2.8.62.66c5.89,6.37,6.69,11.94,6.32,15.49a12,12,0,0,1-3.53,7.63c-2.44-2.94-3.07-7.55-3.07-7.6l-.12-1-.75.67a43.93,43.93,0,0,1-6.7,4.45l-.21.12,0,.26c-.68,5.14,4.53,11.78,4.76,12.06l.22.29.36-.13a104.79,104.79,0,0,0,13.94-6.71l.1-.05.06-.07A19,19,0,0,0,93.42,364.06Z"/></g></svg>